<svg version="1.1" id="Layer_1" xmlns="http://www.w3.org/2000/svg" xmlns:xlink="http://www.w3.org/1999/xlink" x="0px" y="0px"
	 width="100%" viewBox="0 0 216 216" enable-background="new 0 0 216 216" xml:space="preserve">
<path fill="#FEFFFF" opacity="1.000000" stroke="none" 
	d="
M125.000000,217.000000 
	C83.333336,217.000000 42.166672,217.000000 1.000005,217.000000 
	C1.000004,145.000000 1.000004,73.000015 1.000002,1.000015 
	C72.999992,1.000010 144.999985,1.000010 216.999969,1.000005 
	C216.999985,72.999985 216.999985,144.999969 217.000000,216.999969 
	C186.500000,217.000000 156.000000,217.000000 125.000000,217.000000 
M25.876671,97.018738 
	C25.694576,96.166977 25.512482,95.315208 25.016594,93.791145 
	C21.680449,90.710350 19.890919,93.467262 17.235451,95.864227 
	C13.896959,99.559151 9.778031,102.946701 12.051884,109.674660 
	C12.830370,114.718315 17.212479,112.949478 20.796579,114.284317 
	C22.714888,114.864952 24.633196,115.445587 26.511448,115.983780 
	C26.511448,115.983780 26.453176,115.980522 26.455868,116.747856 
	C27.297920,117.148827 28.139975,117.549797 29.734545,117.949364 
	C31.449768,117.613007 33.164993,117.276642 35.562008,117.003380 
	C36.415718,115.601463 39.135902,120.780159 39.689716,116.007057 
	C40.125618,116.005821 40.561516,116.004585 41.105320,116.295357 
	C41.196896,116.345932 41.288475,116.396507 41.380047,116.447090 
	C41.254475,116.297188 41.128902,116.147285 40.915501,115.347343 
	C39.938095,115.212090 38.960690,115.076843 37.421272,114.942871 
	C37.047096,114.948486 36.672924,114.954102 36.038479,114.361427 
	C35.523029,113.726540 35.007580,113.091644 34.172523,112.093628 
	C33.911991,111.887993 33.620037,111.747734 33.007389,111.141808 
	C32.802940,110.609909 32.598495,110.078018 32.887131,108.973030 
	C32.263462,108.312698 31.639793,107.652374 30.336988,106.957298 
	C29.276611,106.647499 28.216234,106.337700 27.045048,105.646477 
	C26.906202,105.419189 26.741278,105.212730 26.278349,104.295563 
	C25.724264,103.775124 25.170177,103.254684 24.826515,102.005119 
	C24.806187,100.754890 24.785858,99.504654 25.185110,97.907387 
	C25.294558,97.762596 25.404005,97.617805 25.876671,97.018738 
M27.639763,99.981995 
	C27.933374,99.566406 28.226984,99.150810 28.520596,98.735222 
	C28.262703,98.640564 27.819635,98.412445 27.776379,98.472473 
	C27.447231,98.929199 27.196218,99.442245 26.641813,100.095520 
	C26.784584,100.093094 26.927353,100.090668 27.639763,99.981995 
M46.242180,103.593719 
	C47.279732,103.970589 48.317287,104.347466 49.354839,104.724335 
	C49.479656,104.413338 49.604473,104.102341 49.729294,103.791344 
	C48.507015,103.159546 47.284737,102.527748 45.603832,101.415955 
	C44.737667,101.274658 43.871506,101.133362 42.633823,100.507103 
	C40.998253,100.759834 40.998253,100.759834 41.406727,105.586754 
	C42.135983,104.406830 42.569378,103.705605 43.705547,103.001305 
	C44.403439,103.036201 45.101334,103.071106 46.242180,103.593719 
M27.667088,93.003334 
	C28.109589,93.004608 28.552088,93.005890 29.582455,93.254486 
	C34.162182,92.752083 29.757854,90.665398 30.755030,89.319977 
	C26.498749,90.366142 26.498749,90.366142 27.667088,93.003334 
M48.598537,89.480431 
	C48.063313,90.314499 47.528084,91.148567 46.524632,91.991562 
	C46.524632,91.991562 46.056320,91.993248 45.704777,91.438171 
	C44.730488,90.725449 43.756199,90.012733 42.781910,89.300018 
	C42.521015,89.567177 42.260124,89.834335 41.999229,90.101494 
	C42.647858,90.759766 43.296486,91.418030 43.981804,92.909561 
	C43.981804,94.760551 43.981804,96.611542 43.981804,98.462524 
	C44.520130,98.529709 45.058456,98.596886 45.596786,98.664070 
	C46.073746,97.121979 46.550705,95.579887 47.636982,94.299698 
	C48.878426,94.817177 50.119873,95.334648 52.740860,96.427170 
	C51.324261,94.068947 50.699146,93.028320 50.022011,91.374023 
	C49.686615,90.892532 49.351219,90.411034 48.598537,89.480431 
M38.068928,93.361534 
	C38.487598,92.044876 38.906265,90.728226 39.324932,89.411568 
	C37.868019,89.125931 36.411110,88.840302 34.590939,88.483452 
	C35.153034,90.972305 35.486538,92.448997 35.316727,94.014282 
	C35.450615,94.972664 35.584503,95.931046 35.015137,96.942162 
	C33.526264,97.607094 32.037392,98.272026 31.837074,98.361488 
	C31.837074,101.224495 31.837074,102.775421 31.837074,105.146774 
	C33.489735,103.103149 34.744625,101.551392 36.486446,99.705528 
	C39.786148,98.586533 38.861046,96.304420 38.068928,93.361534 
M50.990627,111.280777 
	C48.519436,110.574318 46.048244,109.867867 43.243622,109.066093 
	C43.243622,110.824028 43.243622,112.089439 43.243622,113.388092 
	C45.912506,112.910332 48.410866,112.463097 51.129910,112.681770 
	C51.656872,113.395355 52.187157,114.106598 52.697945,114.831581 
	C52.717213,114.858940 52.547493,115.019440 52.465843,115.117897 
	C52.498516,115.125839 52.531185,115.133781 53.199348,115.296204 
	C53.469997,113.515343 53.735786,111.766487 54.409039,109.482132 
	C56.387783,108.180573 61.320957,108.277084 56.928688,103.390030 
	C56.345150,102.899315 55.761616,102.408592 55.178078,101.917877 
	C55.031200,102.064072 54.884323,102.210266 54.737446,102.356468 
	C55.161537,102.905884 55.585632,103.455299 55.461502,104.231537 
	C54.437794,104.429871 53.414085,104.628204 52.148003,104.873497 
	C52.420666,105.591064 52.683014,106.281494 52.296150,107.061592 
	C51.654083,107.640709 51.012012,108.219826 50.369942,108.798943 
	C50.921909,109.194672 51.473881,109.590393 52.051991,110.575241 
	C52.056511,110.771759 52.061035,110.968277 51.886433,111.406342 
	C51.886433,111.406342 51.647404,111.589088 50.990627,111.280777 
M42.360001,124.030136 
	C41.214680,124.125809 40.069363,124.221481 39.007660,124.310173 
	C38.781525,125.591339 38.189419,127.320633 38.286991,129.010101 
	C38.344395,130.004181 39.496944,130.935013 40.156937,131.894302 
	C40.971996,131.289825 42.319824,130.811157 42.498089,130.056305 
	C42.956989,128.113083 42.897949,126.047539 43.533813,123.653618 
	C43.489010,122.881447 43.444206,122.109276 43.399403,121.337105 
	C43.078587,121.379173 42.757771,121.421234 42.436954,121.463295 
	C42.602428,122.293091 42.767902,123.122879 42.360001,124.030136 
M135.258026,107.214119 
	C134.246201,99.917618 130.578873,95.806229 124.332024,94.965134 
	C118.190392,94.138191 112.653687,97.012741 110.340660,102.229187 
	C108.008797,107.488106 109.362114,114.162025 113.497444,117.797104 
	C118.310616,122.028008 123.825165,121.788330 131.372513,116.875885 
	C131.657440,121.024811 130.268753,124.206474 126.691376,126.047951 
	C122.373512,128.270584 118.395119,127.283974 114.684586,124.288086 
	C113.877571,123.636497 112.480484,123.715736 111.355171,123.458374 
	C111.721931,124.573410 111.760765,126.032928 112.510017,126.746147 
	C116.594246,130.634018 121.518600,131.696732 126.796944,129.829849 
	C131.766312,128.072250 134.667145,124.310120 135.115692,119.036514 
	C135.424515,115.405548 135.241409,111.732742 135.258026,107.214119 
M191.048691,120.696358 
	C199.749207,121.087601 206.309021,116.135780 206.701645,108.319580 
	C207.050903,101.366638 206.862671,94.378883 206.658752,87.413910 
	C206.626129,86.299606 205.267075,85.224129 204.521240,84.130707 
	C203.825958,85.236732 202.618851,86.303810 202.531158,87.456070 
	C202.266068,90.939270 202.435379,94.455528 202.435379,98.729370 
	C196.563232,94.355934 191.282669,93.389824 185.892761,96.929062 
	C181.464233,99.837006 179.628571,104.257156 180.312698,109.403854 
	C181.084259,115.208351 184.474442,119.019966 191.048691,120.696358 
M82.414017,117.984612 
	C82.974373,117.983612 83.699837,117.758415 84.062653,118.025635 
	C84.977592,118.699478 85.729149,119.595169 86.546188,120.401947 
	C87.029762,119.289223 87.855659,118.198952 87.930382,117.059418 
	C88.125923,114.077545 88.052803,111.072693 87.979294,108.079643 
	C87.817879,101.507629 84.136330,96.657845 78.275810,95.184021 
	C72.524597,93.737671 66.532913,96.218681 63.674091,101.230225 
	C60.675762,106.486313 61.579563,113.141464 65.855293,117.291412 
	C70.258270,121.564888 75.613152,121.951271 82.414017,117.984612 
M164.204926,112.389587 
	C165.808853,105.669647 164.351456,100.423981 159.757736,97.290901 
	C155.103973,94.116875 150.139389,93.800285 145.220840,96.622162 
	C140.187881,99.509689 138.466171,104.153236 139.048981,109.723724 
	C139.615799,115.141205 143.683441,119.394157 149.209915,120.566536 
	C155.375397,121.874466 160.238434,119.429756 164.204926,112.389587 
M97.657562,101.557289 
	C101.362755,99.976379 105.067947,98.395470 108.970665,96.730286 
	C104.425392,90.983147 98.546234,99.844193 93.821312,94.441673 
	C93.421509,96.348801 93.017891,97.405991 93.007454,98.467041 
	C92.947006,104.611145 92.889175,110.758606 93.056808,116.898758 
	C93.089958,118.112823 94.110764,119.299911 94.676094,120.499443 
	C95.371071,119.236748 96.569778,118.012939 96.670807,116.704384 
	C97.040306,111.918648 97.044144,107.104675 97.657562,101.557289 
M170.971664,119.087120 
	C173.521179,121.534485 174.276199,120.024048 174.302994,117.477921 
	C174.370758,111.033981 174.412781,104.587021 174.256638,98.146332 
	C174.232590,97.154892 173.104996,96.190201 172.487778,95.213135 
	C171.942673,96.252640 170.948059,97.282585 170.925705,98.333206 
	C170.785156,104.940002 170.860855,111.551384 170.971664,119.087120 
M47.510735,117.205391 
	C48.287571,116.528214 49.064407,115.851044 49.841244,115.173866 
	C49.453274,114.877281 49.065304,114.580696 48.677334,114.284111 
	C48.349236,115.066856 48.021137,115.849602 47.510735,117.205391 
M39.013336,120.232346 
	C38.143082,120.388245 37.272827,120.544144 36.402573,120.700043 
	C36.557899,121.191750 36.713226,121.683456 36.868557,122.175163 
	C37.744865,121.676880 38.621174,121.178596 39.013336,120.232346 
M43.700626,119.971886 
	C44.351013,119.776588 45.001400,119.581284 45.651787,119.385986 
	C45.524429,119.030182 45.397068,118.674370 45.269707,118.318565 
	C44.552792,118.843063 43.835876,119.367561 43.700626,119.971886 
M53.317913,100.359146 
	C53.572559,100.480385 53.827206,100.601624 54.081852,100.722862 
	C54.154778,100.480408 54.227703,100.237953 54.300625,99.995499 
	C53.951923,99.968254 53.603222,99.941017 53.317913,100.359146 
M49.841400,100.034416 
	C49.587257,100.187759 49.194164,100.293892 49.121155,100.508774 
	C49.058140,100.694252 49.359280,101.003456 49.499432,101.257957 
	C49.639912,101.003258 49.780392,100.748558 49.841400,100.034416 
M44.771790,107.204124 
	C44.640800,107.026375 44.509811,106.848618 44.378822,106.670868 
	C44.407516,106.920662 44.436211,107.170448 44.771790,107.204124 
M41.387135,112.480484 
	C41.387135,112.480484 41.522564,112.393951 41.387135,112.480484 
M51.519215,98.411087 
	C51.519215,98.411087 51.588058,98.525177 51.519215,98.411087 
M42.623741,93.520584 
	C42.623741,93.520584 42.449833,93.421257 42.449833,93.421257 
	C42.449833,93.421257 42.474674,93.619560 42.623741,93.520584 
z"/>
<path fill="#325189" opacity="1.000000" stroke="none" 
	d="
M135.268097,107.646378 
	C135.241409,111.732742 135.424515,115.405548 135.115692,119.036514 
	C134.667145,124.310120 131.766312,128.072250 126.796944,129.829849 
	C121.518600,131.696732 116.594246,130.634018 112.510017,126.746147 
	C111.760765,126.032928 111.721931,124.573410 111.355171,123.458374 
	C112.480484,123.715736 113.877571,123.636497 114.684586,124.288086 
	C118.395119,127.283974 122.373512,128.270584 126.691376,126.047951 
	C130.268753,124.206474 131.657440,121.024811 131.372513,116.875885 
	C123.825165,121.788330 118.310616,122.028008 113.497444,117.797104 
	C109.362114,114.162025 108.008797,107.488106 110.340660,102.229187 
	C112.653687,97.012741 118.190392,94.138191 124.332024,94.965134 
	C130.578873,95.806229 134.246201,99.917618 135.268097,107.646378 
M118.632530,98.885506 
	C113.781075,101.059479 112.270134,105.017204 113.102135,109.929665 
	C113.736778,113.676872 116.042221,116.242104 119.851448,117.077110 
	C123.925415,117.970161 127.554626,117.063980 129.950180,113.441780 
	C132.247910,109.967491 132.388382,106.166389 130.167221,102.618980 
	C127.663551,98.620354 123.915405,97.393700 118.632530,98.885506 
z"/>
<path fill="#34538A" opacity="1.000000" stroke="none" 
	d="
M190.656158,120.600403 
	C184.474442,119.019966 181.084259,115.208351 180.312698,109.403854 
	C179.628571,104.257156 181.464233,99.837006 185.892761,96.929062 
	C191.282669,93.389824 196.563232,94.355934 202.435379,98.729370 
	C202.435379,94.455528 202.266068,90.939270 202.531158,87.456070 
	C202.618851,86.303810 203.825958,85.236732 204.521240,84.130707 
	C205.267075,85.224129 206.626129,86.299606 206.658752,87.413910 
	C206.862671,94.378883 207.050903,101.366638 206.701645,108.319580 
	C206.309021,116.135780 199.749207,121.087601 190.656158,120.600403 
M201.244766,102.744324 
	C200.738937,102.094276 200.316498,101.351463 199.713608,100.809372 
	C196.060181,97.524544 191.251328,97.293320 187.477005,100.164352 
	C183.909271,102.878242 182.798950,108.074776 184.898636,112.231392 
	C187.028214,116.447144 191.706223,118.381607 196.227768,116.916267 
	C200.513367,115.527382 203.082321,111.179901 202.432663,106.311371 
	C202.302582,105.336464 201.952072,104.390976 201.244766,102.744324 
z"/>
<path fill="#34538A" opacity="1.000000" stroke="none" 
	d="
M82.122665,118.214401 
	C75.613152,121.951271 70.258270,121.564888 65.855293,117.291412 
	C61.579563,113.141464 60.675762,106.486313 63.674091,101.230225 
	C66.532913,96.218681 72.524597,93.737671 78.275810,95.184021 
	C84.136330,96.657845 87.817879,101.507629 87.979294,108.079643 
	C88.052803,111.072693 88.125923,114.077545 87.930382,117.059418 
	C87.855659,118.198952 87.029762,119.289223 86.546188,120.401947 
	C85.729149,119.595169 84.977592,118.699478 84.062653,118.025635 
	C83.699837,117.758415 82.974373,117.983612 82.122665,118.214401 
M83.911003,110.842888 
	C86.013542,102.126404 78.946503,97.218674 73.469742,98.336403 
	C68.878670,99.273369 66.164650,102.098663 65.712959,106.864861 
	C65.257790,111.667854 67.796028,115.665550 72.071404,116.959679 
	C76.745140,118.374390 80.456871,116.668549 83.911003,110.842888 
z"/>
<path fill="#34538A" opacity="1.000000" stroke="none" 
	d="
M164.089142,112.767181 
	C160.238434,119.429756 155.375397,121.874466 149.209915,120.566536 
	C143.683441,119.394157 139.615799,115.141205 139.048981,109.723724 
	C138.466171,104.153236 140.187881,99.509689 145.220840,96.622162 
	C150.139389,93.800285 155.103973,94.116875 159.757736,97.290901 
	C164.351456,100.423981 165.808853,105.669647 164.089142,112.767181 
M160.045334,102.862473 
	C159.040298,101.788788 158.192703,100.479088 157.001556,99.684357 
	C152.951035,96.981873 147.522003,97.987564 144.549362,101.812386 
	C141.617096,105.585266 142.088928,111.780312 145.549789,114.947624 
	C149.030609,118.133194 154.798340,118.222862 158.242859,114.992111 
	C161.686279,111.762383 161.880280,107.805077 160.045334,102.862473 
z"/>
<path fill="#38568D" opacity="1.000000" stroke="none" 
	d="
M97.421631,101.929314 
	C97.044144,107.104675 97.040306,111.918648 96.670807,116.704384 
	C96.569778,118.012939 95.371071,119.236748 94.676094,120.499443 
	C94.110764,119.299911 93.089958,118.112823 93.056808,116.898758 
	C92.889175,110.758606 92.947006,104.611145 93.007454,98.467041 
	C93.017891,97.405991 93.421509,96.348801 93.821312,94.441673 
	C98.546234,99.844193 104.425392,90.983147 108.970665,96.730286 
	C105.067947,98.395470 101.362755,99.976379 97.421631,101.929314 
z"/>
<path fill="#224480" opacity="1.000000" stroke="none" 
	d="
M170.918365,118.624191 
	C170.860855,111.551384 170.785156,104.940002 170.925705,98.333206 
	C170.948059,97.282585 171.942673,96.252640 172.487778,95.213135 
	C173.104996,96.190201 174.232590,97.154892 174.256638,98.146332 
	C174.412781,104.587021 174.370758,111.033981 174.302994,117.477921 
	C174.276199,120.024048 173.521179,121.534485 170.918365,118.624191 
z"/>
<path fill="#B5DEF2" opacity="1.000000" stroke="none" 
	d="
M12.110911,108.875343 
	C9.778031,102.946701 13.896959,99.559151 17.865191,95.855911 
	C18.679314,95.895332 18.863697,95.943077 19.170568,96.297401 
	C20.217989,97.128777 21.142920,97.653564 21.867702,98.470650 
	C22.096094,100.158241 22.524632,101.553520 22.945374,103.256218 
	C22.867012,103.756111 22.796448,103.948586 22.441515,104.154495 
	C21.460661,104.491814 20.764175,104.815720 19.653585,105.075890 
	C15.803396,104.373688 15.516895,106.254074 15.747095,108.890778 
	C14.264696,108.898155 13.187803,108.886749 12.110911,108.875343 
z"/>
<path fill="#E9F6FB" opacity="1.000000" stroke="none" 
	d="
M26.453176,115.980522 
	C26.453176,115.980522 26.511448,115.983780 26.270164,115.710091 
	C25.246183,113.993233 24.463490,112.550056 23.785681,110.693039 
	C23.890568,108.465683 23.890568,106.652161 23.890568,104.727028 
	C25.016653,104.854080 25.783464,104.940590 26.550276,105.027100 
	C26.741278,105.212730 26.906202,105.419189 27.102356,106.186615 
	C27.482477,108.190506 27.805288,109.654274 28.099354,111.508904 
	C28.095690,112.952797 28.120773,114.005829 27.916344,115.294907 
	C27.275612,115.680817 26.864395,115.830673 26.453176,115.980522 
z"/>
<path fill="#D7ECF7" opacity="1.000000" stroke="none" 
	d="
M52.065556,111.164795 
	C52.061035,110.968277 52.056511,110.771759 52.163651,109.987144 
	C52.498665,108.590004 52.722015,107.780960 52.945366,106.971916 
	C52.683014,106.281494 52.420666,105.591064 52.148003,104.873497 
	C53.414085,104.628204 54.437794,104.429871 55.984329,104.117126 
	C56.507160,104.002724 57.004810,103.996704 57.004810,103.996704 
	C61.320957,108.277084 56.387783,108.180573 54.041237,109.992905 
	C53.137478,110.724060 52.601517,110.944427 52.065556,111.164795 
z"/>
<path fill="#E9F6FB" opacity="1.000000" stroke="none" 
	d="
M43.045868,124.030876 
	C42.897949,126.047539 42.956989,128.113083 42.498089,130.056305 
	C42.319824,130.811157 40.971996,131.289825 40.156937,131.894302 
	C39.496944,130.935013 38.344395,130.004181 38.286991,129.010101 
	C38.189419,127.320633 38.781525,125.591339 39.007660,124.310173 
	C40.069363,124.221481 41.214680,124.125809 42.674767,124.011024 
	C42.989529,123.991913 43.045868,124.030876 43.045868,124.030876 
z"/>
<path fill="#E4F3FB" opacity="1.000000" stroke="none" 
	d="
M12.081398,109.275002 
	C13.187803,108.886749 14.264696,108.898155 15.737743,108.922882 
	C16.133898,108.936203 16.069777,108.955223 16.109589,109.304504 
	C17.983883,110.421082 19.818369,111.188370 21.728714,112.240570 
	C21.246605,112.999687 20.688637,113.473900 20.130669,113.948120 
	C17.212479,112.949478 12.830370,114.718315 12.081398,109.275002 
z"/>
<path fill="#E9F6FB" opacity="1.000000" stroke="none" 
	d="
M35.999519,99.999641 
	C34.744625,101.551392 33.489735,103.103149 31.837074,105.146774 
	C31.837074,102.775421 31.837074,101.224495 31.837074,98.361488 
	C32.037392,98.272026 33.526264,97.607094 35.458076,97.298744 
	C35.933853,98.436768 35.966686,99.218201 35.999519,99.999641 
z"/>
<path fill="#D7ECF7" opacity="1.000000" stroke="none" 
	d="
M50.909225,112.015854 
	C48.410866,112.463097 45.912506,112.910332 43.243622,113.388092 
	C43.243622,112.089439 43.243622,110.824028 43.243622,109.066093 
	C46.048244,109.867867 48.519436,110.574318 51.148056,111.565247 
	C51.305485,111.849716 50.909225,112.015854 50.909225,112.015854 
z"/>
<path fill="#D7ECF7" opacity="1.000000" stroke="none" 
	d="
M35.820038,93.925690 
	C35.486538,92.448997 35.153034,90.972305 34.590939,88.483452 
	C36.411110,88.840302 37.868019,89.125931 39.324936,89.411568 
	C38.906265,90.728226 38.487598,92.044876 37.684902,93.701370 
	C36.807262,94.002693 36.313652,93.964188 35.820038,93.925690 
z"/>
<path fill="#38568D" opacity="1.000000" stroke="none" 
	d="
M28.128099,111.118034 
	C27.805288,109.654274 27.482477,108.190506 27.157763,106.377319 
	C28.216234,106.337700 29.276611,106.647499 30.796482,107.252335 
	C31.363596,108.039230 31.471214,108.531082 31.385986,109.198059 
	C31.096535,109.881500 30.999933,110.389816 30.629063,110.967712 
	C30.036304,111.242096 29.717813,111.446915 29.100895,111.472137 
	C28.577679,111.234390 28.352890,111.176216 28.128099,111.118034 
z"/>
<path fill="#32A5DE" opacity="1.000000" stroke="none" 
	d="
M20.463623,114.116219 
	C20.688637,113.473900 21.246605,112.999687 21.658401,111.962479 
	C21.476437,111.211609 21.440639,111.023727 21.796270,110.857101 
	C22.446201,110.912415 22.704704,110.946449 23.140995,111.021225 
	C23.318781,111.061974 23.680794,111.106888 23.680794,111.106888 
	C24.463490,112.550056 25.246183,113.993233 26.290192,115.731308 
	C24.633196,115.445587 22.714888,114.864952 20.463623,114.116219 
z"/>
<path fill="#E9F6FB" opacity="1.000000" stroke="none" 
	d="
M47.027668,94.037796 
	C46.550705,95.579887 46.073746,97.121979 45.596786,98.664070 
	C45.058456,98.596886 44.520130,98.529709 43.981804,98.462524 
	C43.981804,96.611542 43.981804,94.760551 44.315346,92.473160 
	C45.118034,92.022255 45.587177,92.007751 46.056320,91.993248 
	C46.056320,91.993248 46.524632,91.991562 46.762497,92.329628 
	C47.009464,93.124397 47.018566,93.581093 47.027668,94.037796 
z"/>
<path fill="#EFF8FC" opacity="1.000000" stroke="none" 
	d="
M47.332325,94.168747 
	C47.018566,93.581093 47.009464,93.124397 46.996605,92.325165 
	C47.528084,91.148567 48.063313,90.314499 48.705482,89.969131 
	C49.232964,90.967781 49.653500,91.477737 50.074036,91.987694 
	C50.699146,93.028320 51.324261,94.068947 52.740860,96.427170 
	C50.119873,95.334648 48.878426,94.817177 47.332325,94.168747 
z"/>
<path fill="#325189" opacity="1.000000" stroke="none" 
	d="
M22.953171,102.948807 
	C22.524632,101.553520 22.096094,100.158241 22.179703,98.414215 
	C23.110432,98.032829 23.529015,98.000175 24.137085,98.082001 
	C24.326572,98.196480 24.765530,98.254425 24.765530,98.254425 
	C24.785858,99.504654 24.806187,100.754890 24.440987,102.366623 
	C23.688030,102.801682 23.320601,102.875244 22.953171,102.948807 
z"/>
<path fill="#E9F1F6" opacity="1.000000" stroke="none" 
	d="
M35.568382,93.969986 
	C36.313652,93.964188 36.807262,94.002693 37.671925,94.046478 
	C38.861046,96.304420 39.786148,98.586533 36.242981,99.852585 
	C35.966686,99.218201 35.933853,98.436768 35.809708,97.272377 
	C35.584503,95.931046 35.450615,94.972664 35.568382,93.969986 
z"/>
<path fill="#EFF8FC" opacity="1.000000" stroke="none" 
	d="
M27.003290,93.007744 
	C26.498749,90.366142 26.498749,90.366142 30.755030,89.319977 
	C29.757854,90.665398 34.162182,92.752083 29.250942,92.831352 
	C28.512741,92.087967 28.106050,91.767715 27.699360,91.447464 
	C27.467337,91.967560 27.235313,92.487648 27.003290,93.007744 
z"/>
<path fill="#32A5DE" opacity="1.000000" stroke="none" 
	d="
M51.019569,112.348816 
	C50.909225,112.015854 51.305485,111.849716 51.476444,111.719406 
	C51.647404,111.589088 51.886433,111.406342 51.975994,111.285568 
	C52.601517,110.944427 53.137478,110.724060 53.837502,110.260666 
	C53.735786,111.766487 53.469997,113.515343 53.199348,115.296204 
	C52.531185,115.133781 52.498516,115.125839 52.465843,115.117897 
	C52.547493,115.019440 52.717213,114.858940 52.697945,114.831581 
	C52.187157,114.106598 51.656872,113.395355 51.019569,112.348816 
z"/>
<path fill="#EFF8FC" opacity="1.000000" stroke="none" 
	d="
M19.048080,95.990814 
	C18.863697,95.943077 18.679314,95.895332 18.223774,95.755112 
	C19.890919,93.467262 21.680449,90.710350 25.112160,94.064590 
	C25.207726,94.338043 25.222994,94.163292 24.848503,94.140175 
	C22.665369,94.741646 20.856724,95.366234 19.048080,95.990814 
z"/>
<path fill="#51B4E4" opacity="1.000000" stroke="none" 
	d="
M34.492134,112.456757 
	C35.007580,113.091644 35.523029,113.726540 36.056152,114.948563 
	C35.675957,116.003883 35.278088,116.472084 34.880219,116.940277 
	C33.164993,117.276642 31.449768,117.613007 29.380888,117.615921 
	C29.029997,116.835945 29.032764,116.389412 29.408268,116.003967 
	C31.194418,115.174995 35.086952,117.758247 34.017654,112.987900 
	C34.182568,112.817009 34.492134,112.456757 34.492134,112.456757 
z"/>
<path fill="#E9F6FB" opacity="1.000000" stroke="none" 
	d="
M43.002777,103.004372 
	C42.569378,103.705605 42.135983,104.406830 41.406727,105.586754 
	C40.998253,100.759834 40.998253,100.759834 42.817188,101.085045 
	C43.001293,102.110115 43.002037,102.557243 43.002777,103.004372 
z"/>
<path fill="#51B4E4" opacity="1.000000" stroke="none" 
	d="
M22.945374,103.256218 
	C23.320601,102.875244 23.688030,102.801682 24.335775,102.731178 
	C25.170177,103.254684 25.724264,103.775124 26.414312,104.661331 
	C25.783464,104.940590 25.016653,104.854080 23.890568,104.727028 
	C23.890568,106.652161 23.890568,108.465683 23.785681,110.693039 
	C23.680794,111.106888 23.318781,111.061974 23.143932,110.678139 
	C22.888819,109.845589 22.808558,109.396873 22.756605,108.547272 
	C22.765236,106.811279 22.745560,105.476173 22.725883,104.141068 
	C22.796448,103.948586 22.867012,103.756111 22.945374,103.256218 
z"/>
<path fill="#E9F6FB" opacity="1.000000" stroke="none" 
	d="
M35.221115,116.971832 
	C35.278088,116.472084 35.675957,116.003883 36.186287,115.247704 
	C36.672924,114.954102 37.047096,114.948486 37.815605,115.176788 
	C38.485462,115.613098 38.760986,115.815498 39.036514,116.017899 
	C39.135902,120.780159 36.415718,115.601463 35.221115,116.971832 
z"/>
<path fill="#EFF8FC" opacity="1.000000" stroke="none" 
	d="
M47.601887,116.918869 
	C48.021137,115.849602 48.349236,115.066856 48.677334,114.284111 
	C49.065304,114.580696 49.453274,114.877281 49.841244,115.173866 
	C49.064407,115.851044 48.287571,116.528214 47.601887,116.918869 
z"/>
<path fill="#E9F6FB" opacity="1.000000" stroke="none" 
	d="
M39.255409,120.456329 
	C38.621174,121.178596 37.744865,121.676880 36.868557,122.175163 
	C36.713226,121.683456 36.557899,121.191750 36.402573,120.700043 
	C37.272827,120.544144 38.143082,120.388245 39.255409,120.456329 
z"/>
<path fill="#D7ECF7" opacity="1.000000" stroke="none" 
	d="
M45.880547,91.715714 
	C45.587177,92.007751 45.118034,92.022255 44.297001,92.056526 
	C43.296486,91.418030 42.647858,90.759766 41.999229,90.101494 
	C42.260124,89.834335 42.521015,89.567177 42.781910,89.300018 
	C43.756199,90.012733 44.730488,90.725449 45.880547,91.715714 
z"/>
<path fill="#EFF8FC" opacity="1.000000" stroke="none" 
	d="
M52.620758,107.016754 
	C52.722015,107.780960 52.498665,108.590004 52.150581,109.692581 
	C51.473881,109.590393 50.921909,109.194672 50.369942,108.798943 
	C51.012012,108.219826 51.654083,107.640709 52.620758,107.016754 
z"/>
<path fill="#E9F6FB" opacity="1.000000" stroke="none" 
	d="
M46.062458,101.895950 
	C47.284737,102.527748 48.507015,103.159546 49.729294,103.791344 
	C49.604473,104.102341 49.479656,104.413338 49.354839,104.724335 
	C48.317287,104.347466 47.279732,103.970589 46.095947,103.048798 
	C45.987297,102.301231 46.024879,102.098595 46.062458,101.895950 
z"/>
<path fill="#EFF8FC" opacity="1.000000" stroke="none" 
	d="
M39.363113,116.012482 
	C38.760986,115.815498 38.485462,115.613098 38.096611,115.176147 
	C38.960690,115.076843 39.938095,115.212090 40.957748,115.673676 
	C41.000000,116.000000 40.997417,116.003357 40.997417,116.003357 
	C40.561516,116.004585 40.125618,116.005821 39.363113,116.012482 
z"/>
<path fill="#EFF8FC" opacity="1.000000" stroke="none" 
	d="
M45.833145,101.655952 
	C46.024879,102.098595 45.987297,102.301231 45.874474,102.804939 
	C45.101334,103.071106 44.403439,103.036201 43.354164,103.002838 
	C43.002037,102.557243 43.001293,102.110115 43.002945,101.327530 
	C43.871506,101.133362 44.737667,101.274658 45.833145,101.655952 
z"/>
<path fill="#51B4E4" opacity="1.000000" stroke="none" 
	d="
M30.903332,110.898140 
	C30.999933,110.389816 31.096535,109.881500 31.586409,109.334442 
	C31.979679,109.295715 32.394051,109.546120 32.394051,109.546120 
	C32.598495,110.078018 32.802940,110.609909 33.003330,111.574371 
	C32.999271,112.006935 32.701702,112.340881 32.423561,112.231102 
	C31.731394,111.713593 31.317362,111.305870 30.903332,110.898140 
z"/>
<path fill="#E9F6FB" opacity="1.000000" stroke="none" 
	d="
M43.409794,119.931976 
	C43.835876,119.367561 44.552792,118.843063 45.269707,118.318565 
	C45.397068,118.674370 45.524429,119.030182 45.651787,119.385986 
	C45.001400,119.581284 44.351013,119.776588 43.409794,119.931976 
z"/>
<path fill="#E9F6FB" opacity="1.000000" stroke="none" 
	d="
M42.961452,123.972290 
	C42.767902,123.122879 42.602428,122.293091 42.436954,121.463295 
	C42.757771,121.421234 43.078587,121.379173 43.399403,121.337105 
	C43.444206,122.109276 43.489010,122.881447 43.289841,123.842247 
	C43.045868,124.030876 42.989529,123.991913 42.961452,123.972290 
z"/>
<path fill="#199BDA" opacity="1.000000" stroke="none" 
	d="
M29.035530,115.942871 
	C29.032764,116.389412 29.029997,116.835945 29.004629,117.616623 
	C28.139975,117.549797 27.297920,117.148827 26.454521,116.364189 
	C26.864395,115.830673 27.275612,115.680817 28.069324,115.307632 
	C28.451818,115.084290 28.758713,115.068817 28.822655,115.289001 
	C28.886597,115.509178 29.035530,115.942871 29.035530,115.942871 
z"/>
<path fill="#F2F9FC" opacity="1.000000" stroke="none" 
	d="
M27.335190,93.005539 
	C27.235313,92.487648 27.467337,91.967560 27.699360,91.447464 
	C28.106050,91.767715 28.512741,92.087967 28.957010,92.707695 
	C28.552088,93.005890 28.109589,93.004608 27.335190,93.005539 
z"/>
<path fill="#E4F3FB" opacity="1.000000" stroke="none" 
	d="
M56.966751,103.693367 
	C57.004810,103.996704 56.507160,104.002724 56.258446,104.003723 
	C55.585632,103.455299 55.161537,102.905884 54.737446,102.356468 
	C54.884323,102.210266 55.031200,102.064072 55.178078,101.917877 
	C55.761616,102.408592 56.345150,102.899315 56.966751,103.693367 
z"/>
<path fill="#E9F6FB" opacity="1.000000" stroke="none" 
	d="
M32.640591,109.259575 
	C32.394051,109.546120 31.979679,109.295715 31.779255,109.159325 
	C31.471214,108.531082 31.363596,108.039230 31.136051,107.269714 
	C31.639793,107.652374 32.263462,108.312698 32.640591,109.259575 
z"/>
<path fill="#EFF8FC" opacity="1.000000" stroke="none" 
	d="
M26.920868,99.937744 
	C27.196218,99.442245 27.447231,98.929199 27.776379,98.472473 
	C27.819635,98.412445 28.262703,98.640564 28.520596,98.735222 
	C28.226984,99.150810 27.933374,99.566406 27.319849,99.995293 
	C26.999935,100.008591 26.920868,99.937744 26.920868,99.937744 
z"/>
<path fill="#51B4E4" opacity="1.000000" stroke="none" 
	d="
M25.269056,94.400742 
	C25.512482,95.315208 25.694576,96.166977 25.515957,97.077599 
	C25.155241,97.136459 24.786478,96.822571 24.821075,96.484848 
	C24.978115,95.485840 25.100554,94.824570 25.222994,94.163292 
	C25.222994,94.163292 25.207726,94.338043 25.269056,94.400742 
z"/>
<path fill="#E4F3FB" opacity="1.000000" stroke="none" 
	d="
M53.286217,100.136459 
	C53.603222,99.941017 53.951923,99.968254 54.300625,99.995499 
	C54.227703,100.237953 54.154778,100.480408 54.081852,100.722862 
	C53.827206,100.601624 53.572559,100.480385 53.286217,100.136459 
z"/>
<path fill="#E4F3FB" opacity="1.000000" stroke="none" 
	d="
M49.881134,100.264137 
	C49.780392,100.748558 49.639912,101.003258 49.499432,101.257957 
	C49.359280,101.003456 49.058140,100.694252 49.121155,100.508774 
	C49.194164,100.293892 49.587257,100.187759 49.881134,100.264137 
z"/>
<path fill="#D7ECF7" opacity="1.000000" stroke="none" 
	d="
M50.048023,91.680862 
	C49.653500,91.477737 49.232964,90.967781 48.914127,90.193687 
	C49.351219,90.411034 49.686615,90.892532 50.048023,91.680862 
z"/>
<path fill="#E9F6FB" opacity="1.000000" stroke="none" 
	d="
M44.618347,107.312180 
	C44.436211,107.170448 44.407516,106.920662 44.378822,106.670868 
	C44.509811,106.848618 44.640800,107.026375 44.618347,107.312180 
z"/>
<path fill="#51B4E4" opacity="1.000000" stroke="none" 
	d="
M33.147968,111.839890 
	C33.620037,111.747734 33.911991,111.887993 34.332329,112.275192 
	C34.492134,112.456757 34.182568,112.817009 33.782726,112.919037 
	C33.069851,112.880432 32.842789,112.653709 32.701702,112.340881 
	C32.701702,112.340881 32.999271,112.006935 33.147968,111.839890 
z"/>
<path fill="#EFF8FC" opacity="1.000000" stroke="none" 
	d="
M41.454849,112.437218 
	C41.522564,112.393951 41.387135,112.480484 41.454849,112.437218 
z"/>
<path fill="#EFF8FC" opacity="1.000000" stroke="none" 
	d="
M27.035030,100.048416 
	C26.927353,100.090668 26.784584,100.093094 26.781342,100.016632 
	C26.920868,99.937744 26.999935,100.008591 27.035030,100.048416 
z"/>
<path fill="#EFF8FC" opacity="1.000000" stroke="none" 
	d="
M41.001663,115.998688 
	C41.128902,116.147285 41.254475,116.297188 41.380051,116.447090 
	C41.288475,116.396507 41.196896,116.345932 41.051369,116.149353 
	C40.997417,116.003357 41.000000,116.000000 41.001663,115.998688 
z"/>
<path fill="#EFF8FC" opacity="1.000000" stroke="none" 
	d="
M51.553635,98.468132 
	C51.588058,98.525177 51.519215,98.411087 51.553635,98.468132 
z"/>
<path fill="#51B4E4" opacity="1.000000" stroke="none" 
	d="
M24.975319,98.080902 
	C24.765530,98.254425 24.326572,98.196480 24.211819,97.847672 
	C24.240511,97.185387 24.470316,96.959953 24.786478,96.822571 
	C24.786478,96.822571 25.155241,97.136459 25.334347,97.304733 
	C25.404005,97.617805 25.294558,97.762596 24.975319,98.080902 
z"/>
<path fill="#E9F6FB" opacity="1.000000" stroke="none" 
	d="
M42.549210,93.570068 
	C42.474674,93.619560 42.449833,93.421257 42.449833,93.421257 
	C42.449833,93.421257 42.623741,93.520584 42.549210,93.570068 
z"/>
<path fill="#F9FAFB" opacity="1.000000" stroke="none" 
	d="
M118.999504,98.769882 
	C123.915405,97.393700 127.663551,98.620354 130.167221,102.618980 
	C132.388382,106.166389 132.247910,109.967491 129.950180,113.441780 
	C127.554626,117.063980 123.925415,117.970161 119.851448,117.077110 
	C116.042221,116.242104 113.736778,113.676872 113.102135,109.929665 
	C112.270134,105.017204 113.781075,101.059479 118.999504,98.769882 
z"/>
<path fill="#F9FAFC" opacity="1.000000" stroke="none" 
	d="
M201.473984,103.088127 
	C201.952072,104.390976 202.302582,105.336464 202.432663,106.311371 
	C203.082321,111.179901 200.513367,115.527382 196.227768,116.916267 
	C191.706223,118.381607 187.028214,116.447144 184.898636,112.231392 
	C182.798950,108.074776 183.909271,102.878242 187.477005,100.164352 
	C191.251328,97.293320 196.060181,97.524544 199.713608,100.809372 
	C200.316498,101.351463 200.738937,102.094276 201.473984,103.088127 
z"/>
<path fill="#FBFCFD" opacity="1.000000" stroke="none" 
	d="
M83.791214,111.235710 
	C80.456871,116.668549 76.745140,118.374390 72.071404,116.959679 
	C67.796028,115.665550 65.257790,111.667854 65.712959,106.864861 
	C66.164650,102.098663 68.878670,99.273369 73.469742,98.336403 
	C78.946503,97.218674 86.013542,102.126404 83.791214,111.235710 
z"/>
<path fill="#FBFCFD" opacity="1.000000" stroke="none" 
	d="
M160.226868,103.223907 
	C161.880280,107.805077 161.686279,111.762383 158.242859,114.992111 
	C154.798340,118.222862 149.030609,118.133194 145.549789,114.947624 
	C142.088928,111.780312 141.617096,105.585266 144.549362,101.812386 
	C147.522003,97.987564 152.951035,96.981873 157.001556,99.684357 
	C158.192703,100.479088 159.040298,101.788788 160.226868,103.223907 
z"/>
<path fill="#224480" opacity="1.000000" stroke="none" 
	d="
M16.143250,108.904099 
	C15.516895,106.254074 15.803396,104.373688 19.614878,105.467857 
	C20.015345,106.984596 20.040415,108.045631 19.665443,109.067535 
	C18.200193,109.004005 17.134985,108.979614 16.069777,108.955223 
	C16.069777,108.955223 16.133898,108.936203 16.143250,108.904099 
z"/>
<path fill="#FEFFFF" opacity="1.000000" stroke="none" 
	d="
M24.821075,96.484848 
	C24.470316,96.959953 24.240511,97.185387 24.022331,97.733185 
	C23.529015,98.000175 23.110432,98.032829 22.379848,98.121918 
	C21.142920,97.653564 20.217989,97.128777 19.170570,96.297401 
	C20.856724,95.366234 22.665369,94.741646 24.848503,94.140175 
	C25.100554,94.824570 24.978115,95.485840 24.821075,96.484848 
z"/>
<path fill="#F2F9FC" opacity="1.000000" stroke="none" 
	d="
M20.065485,109.106667 
	C20.040415,108.045631 20.015345,106.984596 20.028982,105.531593 
	C20.764175,104.815720 21.460661,104.491814 22.441517,104.154495 
	C22.745560,105.476173 22.765236,106.811279 22.454971,108.569534 
	C21.721983,109.021378 21.318935,109.050072 20.700859,109.041260 
	C20.485828,109.003746 20.054703,109.072372 20.049587,109.074997 
	C20.044470,109.077621 20.065485,109.106667 20.065485,109.106667 
z"/>
<path fill="#51B4E4" opacity="1.000000" stroke="none" 
	d="
M28.758713,115.068817 
	C28.758713,115.068817 28.451818,115.084290 28.298838,115.071571 
	C28.120773,114.005829 28.095690,112.952797 28.099354,111.508904 
	C28.352890,111.176216 28.577679,111.234390 29.053478,111.812622 
	C29.122561,113.244736 28.940636,114.156776 28.758713,115.068817 
z"/>
<path fill="#FEFFFF" opacity="1.000000" stroke="none" 
	d="
M16.109589,109.304504 
	C17.134985,108.979614 18.200193,109.004005 19.665443,109.067535 
	C20.065485,109.106667 20.044470,109.077621 20.008682,109.366608 
	C20.484396,110.041306 20.995897,110.427010 21.482496,110.821762 
	C21.457594,110.830818 21.404844,110.835838 21.404844,110.835838 
	C21.440639,111.023727 21.476437,111.211609 21.582542,111.677582 
	C19.818369,111.188370 17.983883,110.421082 16.109589,109.304504 
z"/>
<path fill="#E9F6FB" opacity="1.000000" stroke="none" 
	d="
M28.822655,115.289001 
	C28.940636,114.156776 29.122561,113.244736 29.351906,111.992210 
	C29.717813,111.446915 30.036304,111.242096 30.629063,110.967712 
	C31.317362,111.305870 31.731394,111.713593 32.423561,112.231102 
	C32.842789,112.653709 33.069851,112.880432 33.617813,113.089928 
	C35.086952,117.758247 31.194418,115.174995 29.408268,116.003967 
	C29.035530,115.942871 28.886597,115.509178 28.822655,115.289001 
z"/>
<path fill="#D7ECF7" opacity="1.000000" stroke="none" 
	d="
M20.915888,109.078766 
	C21.318935,109.050072 21.721983,109.021378 22.426662,108.970421 
	C22.808558,109.396873 22.888819,109.845589 22.966145,110.637390 
	C22.704704,110.946449 22.446201,110.912415 21.796270,110.857101 
	C21.404844,110.835838 21.457594,110.830818 21.498121,110.592285 
	C21.331062,109.928749 21.123476,109.503761 20.915888,109.078766 
z"/>
<path fill="#E4F3FB" opacity="1.000000" stroke="none" 
	d="
M20.700859,109.041260 
	C21.123476,109.503761 21.331062,109.928749 21.523024,110.583229 
	C20.995897,110.427010 20.484396,110.041306 20.013798,109.363983 
	C20.054703,109.072372 20.485828,109.003746 20.700859,109.041260 
z"/>
</svg>