<svg version="1.1" id="Layer_1" xmlns="http://www.w3.org/2000/svg" xmlns:xlink="http://www.w3.org/1999/xlink" x="0px" y="0px"
	 width="100%" viewBox="0 0 279 181" enable-background="new 0 0 279 181" xml:space="preserve">
<path fill="#FEFEFE" opacity="1.000000" stroke="none" 
	d="
M182.000000,182.000000 
	C121.333344,182.000000 61.166679,182.000000 1.000016,182.000000 
	C1.000011,121.666679 1.000011,61.333363 1.000005,1.000032 
	C93.999969,1.000022 186.999939,1.000022 279.999939,1.000011 
	C279.999939,61.333302 279.999939,121.666603 279.999969,181.999954 
	C247.500000,182.000000 215.000000,182.000000 182.000000,182.000000 
M244.895874,177.899094 
	C250.606079,177.845703 256.316284,177.792328 262.629028,177.912842 
	C263.029449,177.606689 263.429840,177.300537 263.987793,176.069580 
	C263.943176,140.715561 263.898560,105.361534 263.859619,69.199928 
	C256.568970,68.832024 249.278305,68.464127 241.580170,68.075668 
	C241.580170,70.855865 241.580154,72.658424 241.580154,74.460983 
	C241.580154,92.597092 241.580139,110.733200 241.580154,128.869308 
	C241.580154,143.844070 241.529572,158.819290 241.662308,173.792877 
	C241.674896,175.215286 239.999390,178.344345 244.895874,177.899094 
M100.981705,50.683437 
	C108.338860,50.550468 115.696014,50.417500 123.684540,50.207458 
	C123.926338,49.873375 124.168144,49.539288 124.963982,48.870388 
	C126.192375,47.747959 127.398148,46.599556 128.652542,45.506966 
	C150.289764,26.660604 175.296036,19.306440 203.600983,24.111313 
	C222.005875,27.235617 237.499527,36.260475 251.131302,49.586899 
	C251.778824,49.894180 252.426331,50.201466 253.985245,50.680584 
	C261.298920,50.629227 268.612610,50.577869 276.477295,50.754772 
	C276.433319,49.986294 276.389313,49.217812 276.060699,47.844948 
	C273.327637,44.840221 270.503418,41.912773 267.878296,38.816540 
	C259.362396,28.772434 248.897049,21.142950 237.389557,15.066907 
	C219.570831,5.658487 200.303314,1.504698 180.311615,3.216936 
	C146.438965,6.118041 119.008743,21.236967 98.350128,49.332195 
	C98.923744,49.729034 99.497360,50.125874 100.981705,50.683437 
M173.413651,89.202553 
	C173.626801,89.470100 173.839951,89.737648 173.900711,90.931587 
	C173.992584,112.607643 174.084442,134.283707 174.101715,156.732864 
	C178.537354,174.604233 188.424225,181.645493 206.331406,178.874268 
	C210.685959,178.200394 216.611481,176.603683 218.483459,173.452423 
	C221.609024,168.190918 222.049500,161.334366 223.713608,154.782013 
	C218.164597,156.527802 213.428543,158.497498 208.495941,159.458435 
	C200.897690,160.938690 196.288971,157.035355 195.948776,149.282364 
	C195.708252,143.800995 195.816269,138.303329 195.810974,132.812881 
	C195.797073,118.376930 195.806274,103.940964 195.806274,88.859001 
	C203.139160,88.859001 210.078735,88.859001 217.550674,88.932510 
	C217.650391,88.628647 217.750107,88.324776 217.990417,87.091759 
	C217.960098,81.395088 217.929764,75.698418 217.782654,69.101585 
	C210.546127,68.965202 203.309601,68.828819 195.922333,67.803833 
	C195.922333,56.947796 195.922333,46.091755 195.922333,34.470299 
	C189.790283,37.704693 184.667679,40.733376 179.270386,43.148060 
	C175.101074,45.013359 173.471909,47.503990 173.727081,52.196568 
	C174.028076,57.731628 173.272980,63.324120 172.052460,68.738800 
	C166.449829,68.738800 160.847198,68.738800 155.216705,68.738800 
	C155.216705,75.785706 155.216705,82.324249 155.216705,88.914062 
	C161.364441,88.914062 167.174683,88.914062 173.413651,89.202553 
M85.032402,99.182549 
	C86.049210,99.229599 87.583778,99.730446 88.002220,99.253036 
	C91.908096,94.796738 95.622414,90.172539 99.317711,85.687386 
	C83.345444,65.182625 59.158520,62.950203 36.581600,71.198586 
	C13.732415,79.546440 1.452854,101.332428 3.023281,128.388962 
	C4.428437,152.598068 20.381485,171.998810 43.773205,177.945572 
	C66.394310,183.696411 89.073242,176.645508 99.102692,160.609421 
	C95.027359,155.724335 90.914169,150.793884 86.859184,145.933197 
	C84.465202,147.931519 82.515015,149.758911 80.369904,151.318146 
	C64.614578,162.770294 43.824875,160.301697 32.683361,145.709366 
	C20.995541,130.401505 23.780577,106.544395 38.610153,94.939522 
	C52.065224,84.410271 69.726311,85.871956 85.032402,99.182549 
M134.932678,93.500015 
	C134.932678,85.247902 134.932678,76.995796 134.932678,68.825928 
	C127.026741,68.825928 119.807930,68.825928 112.609177,68.825928 
	C112.609177,105.349831 112.609177,141.445389 112.609177,177.649277 
	C120.106331,177.649277 127.333931,177.649277 134.932663,177.649277 
	C134.932663,149.740677 134.932663,122.120346 134.932678,93.500015 
z"/>
<path fill="#034786" opacity="1.000000" stroke="none" 
	d="
M84.779152,98.961105 
	C69.726311,85.871956 52.065224,84.410271 38.610153,94.939522 
	C23.780577,106.544395 20.995541,130.401505 32.683361,145.709366 
	C43.824875,160.301697 64.614578,162.770294 80.369904,151.318146 
	C82.515015,149.758911 84.465202,147.931519 86.859184,145.933197 
	C90.914169,150.793884 95.027359,155.724335 99.102692,160.609421 
	C89.073242,176.645508 66.394310,183.696411 43.773205,177.945572 
	C20.381485,171.998810 4.428437,152.598068 3.023281,128.388962 
	C1.452854,101.332428 13.732415,79.546440 36.581600,71.198586 
	C59.158520,62.950203 83.345444,65.182625 99.317711,85.687386 
	C95.622414,90.172539 91.908096,94.796738 88.002220,99.253036 
	C87.583778,99.730446 86.049210,99.229599 84.779152,98.961105 
z"/>
<path fill="#034786" opacity="1.000000" stroke="none" 
	d="
M217.899445,70.001747 
	C217.929764,75.698418 217.960098,81.395088 217.739441,87.649635 
	C217.264114,88.375854 217.107391,88.593018 217.018311,88.859001 
	C210.078735,88.859001 203.139160,88.859001 195.806274,88.859001 
	C195.806274,103.940964 195.797073,118.376930 195.810974,132.812881 
	C195.816269,138.303329 195.708252,143.800995 195.948776,149.282364 
	C196.288971,157.035355 200.897690,160.938690 208.495941,159.458435 
	C213.428543,158.497498 218.164597,156.527802 223.713608,154.782013 
	C222.049500,161.334366 221.609024,168.190918 218.483459,173.452423 
	C216.611481,176.603683 210.685959,178.200394 206.331406,178.874268 
	C188.424225,181.645493 178.537354,174.604233 174.399460,156.028351 
	C174.794601,134.284622 174.901566,113.245438 174.949554,92.206116 
	C174.951233,91.473160 174.365204,90.738861 174.053101,90.005188 
	C173.839951,89.737648 173.626801,89.470100 172.893768,88.778061 
	C171.228409,88.234711 170.084091,88.025604 168.937271,88.010773 
	C155.728378,87.839920 155.889282,87.847900 155.902344,74.544121 
	C155.906235,70.587433 157.398743,69.868896 160.897018,69.903252 
	C164.919556,69.942757 168.949203,69.260483 172.975754,68.891708 
	C173.272980,63.324120 174.028076,57.731628 173.727081,52.196568 
	C173.471909,47.503990 175.101074,45.013359 179.270386,43.148060 
	C184.667679,40.733376 189.790283,37.704693 195.922333,34.470299 
	C195.922333,46.091755 195.922333,56.947796 196.221252,68.608612 
	C203.646591,69.609505 210.773026,69.805626 217.899445,70.001747 
z"/>
<path fill="#EE1D26" opacity="1.000000" stroke="none" 
	d="
M123.053169,50.284531 
	C115.696014,50.417500 108.338860,50.550468 100.463593,50.355087 
	C99.588104,49.673191 99.230721,49.319641 98.873337,48.966095 
	C119.008743,21.236967 146.438965,6.118041 180.311615,3.216936 
	C200.303314,1.504698 219.570831,5.658487 237.389557,15.066907 
	C248.897049,21.142950 259.362396,28.772434 267.878296,38.816540 
	C270.503418,41.912773 273.327637,44.840221 276.127014,48.492283 
	C276.104309,49.601913 276.015289,50.064209 275.926270,50.526508 
	C268.612610,50.577869 261.298920,50.629227 253.431900,50.327873 
	C252.224243,49.664444 251.569946,49.353725 250.915634,49.043011 
	C237.499527,36.260475 222.005875,27.235617 203.600983,24.111313 
	C175.296036,19.306440 150.289764,26.660604 128.652542,45.506966 
	C127.398148,46.599556 126.192375,47.747959 124.388229,49.109253 
	C123.559372,49.660255 123.306267,49.972393 123.053169,50.284531 
z"/>
<path fill="#084A88" opacity="1.000000" stroke="none" 
	d="
M134.932678,94.000015 
	C134.932663,122.120346 134.932663,149.740677 134.932663,177.649277 
	C127.333931,177.649277 120.106331,177.649277 112.609177,177.649277 
	C112.609177,141.445389 112.609177,105.349831 112.609177,68.825928 
	C119.807930,68.825928 127.026741,68.825928 134.932678,68.825928 
	C134.932678,76.995796 134.932678,85.247902 134.932678,94.000015 
z"/>
<path fill="#004685" opacity="1.000000" stroke="none" 
	d="
M262.026489,177.738922 
	C256.316284,177.792328 250.606079,177.845703 244.244812,177.462921 
	C243.395004,170.587280 243.039658,164.148163 243.024765,157.708252 
	C242.961014,130.145004 243.065094,102.581154 242.920212,75.018509 
	C242.899994,71.168709 243.859695,69.656357 247.918930,69.915703 
	C253.210953,70.253807 258.540527,70.004211 263.853943,70.007507 
	C263.898560,105.361534 263.943176,140.715561 263.652893,176.545670 
	C262.887451,177.260818 262.456970,177.499878 262.026489,177.738922 
z"/>
<path fill="#0B4485" opacity="1.000000" stroke="none" 
	d="
M263.856781,69.603714 
	C258.540527,70.004211 253.210953,70.253807 247.918930,69.915703 
	C243.859695,69.656357 242.899994,71.168709 242.920212,75.018509 
	C243.065094,102.581154 242.961014,130.145004 243.024765,157.708252 
	C243.039658,164.148163 243.395004,170.587280 243.781006,177.382843 
	C239.999390,178.344345 241.674896,175.215286 241.662308,173.792877 
	C241.529572,158.819290 241.580154,143.844070 241.580154,128.869308 
	C241.580139,110.733200 241.580154,92.597092 241.580154,74.460983 
	C241.580154,72.658424 241.580170,70.855865 241.580170,68.075668 
	C249.278305,68.464127 256.568970,68.832024 263.856781,69.603714 
z"/>
<path fill="#00357D" opacity="1.000000" stroke="none" 
	d="
M173.976898,90.468384 
	C174.365204,90.738861 174.951233,91.473160 174.949554,92.206116 
	C174.901566,113.245438 174.794601,134.284622 174.436768,155.641800 
	C174.084442,134.283707 173.992584,112.607643 173.976898,90.468384 
z"/>
<path fill="#00357D" opacity="1.000000" stroke="none" 
	d="
M172.514099,68.815254 
	C168.949203,69.260483 164.919556,69.942757 160.897018,69.903252 
	C157.398743,69.868896 155.906235,70.587433 155.902344,74.544121 
	C155.889282,87.847900 155.728378,87.839920 168.937271,88.010773 
	C170.084091,88.025604 171.228409,88.234711 172.679413,88.633820 
	C167.174683,88.914062 161.364441,88.914062 155.216705,88.914062 
	C155.216705,82.324249 155.216705,75.785706 155.216705,68.738800 
	C160.847198,68.738800 166.449829,68.738800 172.514099,68.815254 
z"/>
<path fill="#003D80" opacity="1.000000" stroke="none" 
	d="
M217.841049,69.551666 
	C210.773026,69.805626 203.646591,69.609505 196.296631,69.052917 
	C203.309601,68.828819 210.546127,68.965202 217.841049,69.551666 
z"/>
<path fill="#F14048" opacity="1.000000" stroke="none" 
	d="
M276.201782,50.640640 
	C276.015289,50.064209 276.104309,49.601913 276.269318,48.794476 
	C276.389313,49.217812 276.433319,49.986294 276.201782,50.640640 
z"/>
<path fill="#F03E45" opacity="1.000000" stroke="none" 
	d="
M98.611732,49.149147 
	C99.230721,49.319641 99.588104,49.673191 100.008232,50.274727 
	C99.497360,50.125874 98.923744,49.729034 98.611732,49.149147 
z"/>
<path fill="#F14048" opacity="1.000000" stroke="none" 
	d="
M251.023468,49.314957 
	C251.569946,49.353725 252.224243,49.664444 252.976196,50.241955 
	C252.426331,50.201466 251.778824,49.894180 251.023468,49.314957 
z"/>
<path fill="#0B4485" opacity="1.000000" stroke="none" 
	d="
M262.327759,177.825882 
	C262.456970,177.499878 262.887451,177.260818 263.574097,177.008057 
	C263.429840,177.300537 263.029449,177.606689 262.327759,177.825882 
z"/>
<path fill="#003D80" opacity="1.000000" stroke="none" 
	d="
M217.284485,88.895752 
	C217.107391,88.593018 217.264114,88.375854 217.669144,88.114212 
	C217.750107,88.324776 217.650391,88.628647 217.284485,88.895752 
z"/>
<path fill="#F03E45" opacity="1.000000" stroke="none" 
	d="
M123.368851,50.245995 
	C123.306267,49.972393 123.559372,49.660255 124.111206,49.276657 
	C124.168144,49.539288 123.926338,49.873375 123.368851,50.245995 
z"/>
</svg>