<svg version="1.1" id="Layer_1" xmlns="http://www.w3.org/2000/svg" xmlns:xlink="http://www.w3.org/1999/xlink" x="0px" y="0px"
	 width="100%" viewBox="0 0 275 183" enable-background="new 0 0 275 183" xml:space="preserve">
<path fill="#FEFEFF" opacity="1.000000" stroke="none" 
	d="
M200.000000,184.000000 
	C133.333344,184.000000 67.166679,184.000000 1.000018,184.000000 
	C1.000012,123.000015 1.000012,62.000031 1.000006,1.000034 
	C92.666634,1.000023 184.333267,1.000023 275.999939,1.000011 
	C275.999939,61.999966 275.999939,122.999931 275.999969,183.999939 
	C250.833328,184.000000 225.666672,184.000000 200.000000,184.000000 
M77.428734,121.499847 
	C77.428734,131.951355 77.428734,142.402847 77.428734,153.025299 
	C118.358353,153.025299 158.865402,153.025299 199.263580,153.025299 
	C199.263580,112.432968 199.263580,72.212654 199.263580,31.892693 
	C158.573914,31.892693 118.192703,31.892693 77.428886,31.892693 
	C77.428886,61.620174 77.428886,91.060005 77.428734,121.499847 
z"/>
<path fill="#071CAA" opacity="1.000000" stroke="none" 
	d="
M77.428810,120.999840 
	C77.428886,91.060005 77.428886,61.620174 77.428886,31.892693 
	C118.192703,31.892693 158.573914,31.892693 199.263580,31.892693 
	C199.263580,72.212654 199.263580,112.432968 199.263580,153.025299 
	C158.865402,153.025299 118.358353,153.025299 77.428734,153.025299 
	C77.428734,142.402847 77.428734,131.951355 77.428810,120.999840 
M94.038483,49.231819 
	C93.691498,50.261330 93.043579,51.290218 93.041458,52.320435 
	C92.985619,79.541130 92.985878,106.761986 93.054184,133.982620 
	C93.055977,134.698685 93.922821,135.412567 94.731651,136.541504 
	C94.821030,136.697433 94.910416,136.853348 95.586136,137.605377 
	C96.230011,137.736206 96.873787,137.980972 97.517769,137.981476 
	C124.799095,138.002655 152.080475,138.016052 179.361679,137.957642 
	C180.566132,137.955078 181.769119,137.272369 183.022781,135.982056 
	C183.022781,107.035828 183.022781,78.089600 183.022781,48.951340 
	C153.359421,48.951340 124.069344,48.951340 94.038483,49.231819 
M95.410973,47.474842 
	C95.410973,47.474842 95.522812,47.409531 95.410973,47.474842 
z"/>
<path fill="#FEFEFF" opacity="1.000000" stroke="none" 
	d="
M94.999802,137.009277 
	C94.910416,136.853348 94.821030,136.697433 94.681808,135.871094 
	C94.681068,106.450905 94.730164,77.701118 94.779266,48.951340 
	C124.069344,48.951340 153.359421,48.951340 183.022781,48.951340 
	C183.022781,78.089600 183.022781,107.035828 182.532791,136.487457 
	C153.028473,136.998322 124.014137,137.003799 94.999802,137.009277 
M170.549286,64.546974 
	C170.549286,64.546974 170.654800,64.341827 171.015594,64.082359 
	C171.210205,63.840912 171.305038,63.565147 171.005585,63.009975 
	C171.005585,63.009975 171.291214,63.265549 171.776108,63.063339 
	C171.882614,62.741543 171.989120,62.419746 172.526398,61.854424 
	C172.125717,61.726219 171.725052,61.598015 171.322922,61.536938 
	C171.322922,61.536938 171.293808,61.457458 170.452209,61.186550 
	C164.300766,61.221256 158.149323,61.255962 151.505814,61.121414 
	C151.275650,61.360256 151.045471,61.599094 150.925690,61.952030 
	C150.925690,61.952030 150.863647,61.805889 150.325378,61.950535 
	C150.180923,62.281151 150.036469,62.611767 149.987091,62.970688 
	C149.987091,62.970688 149.919418,62.898151 149.404709,63.171600 
	C149.149643,63.686398 148.894592,64.201195 148.860703,64.926666 
	C148.860703,64.926666 148.678528,64.681473 148.186523,64.912476 
	C148.039764,65.239357 147.893021,65.566246 147.182358,66.239487 
	C134.749100,83.425995 122.315849,100.612503 109.364578,118.048416 
	C109.110321,118.553566 108.856056,119.058716 108.555748,119.650536 
	C108.555748,119.650536 108.467583,119.693634 108.054703,119.901489 
	C107.839981,120.146156 107.739555,120.431099 107.920670,120.962326 
	C107.920670,120.962326 107.726334,120.781631 107.112793,121.105606 
	C106.490768,122.158447 105.868736,123.211288 104.942474,124.779053 
	C111.955460,124.779053 118.325119,124.909523 124.680534,124.666916 
	C125.923363,124.619461 127.110970,123.125679 128.097061,122.026985 
	C128.097061,122.026985 128.348984,122.276131 128.836502,122.077599 
	C128.966232,121.758224 129.095978,121.438858 129.772736,120.744408 
	C143.214478,102.162621 156.656219,83.580833 170.313339,64.909988 
	C170.313339,64.909988 170.362335,64.682144 170.549286,64.546974 
z"/>
<path fill="#0007A6" opacity="1.000000" stroke="none" 
	d="
M94.408875,49.091579 
	C94.730164,77.701118 94.681068,106.450905 94.509109,135.664078 
	C93.922821,135.412567 93.055977,134.698685 93.054184,133.982620 
	C92.985878,106.761986 92.985619,79.541130 93.041458,52.320435 
	C93.043579,51.290218 93.691498,50.261330 94.408875,49.091579 
z"/>
<path fill="#0000A7" opacity="1.000000" stroke="none" 
	d="
M95.292969,137.307327 
	C124.014137,137.003799 153.028473,136.998322 182.507782,136.949646 
	C181.769119,137.272369 180.566132,137.955078 179.361679,137.957642 
	C152.080475,138.016052 124.799095,138.002655 97.517769,137.981476 
	C96.873787,137.980972 96.230011,137.736206 95.292969,137.307327 
z"/>
<path fill="#000EA7" opacity="1.000000" stroke="none" 
	d="
M95.466888,47.442184 
	C95.522812,47.409531 95.410973,47.474842 95.466888,47.442184 
z"/>
<path fill="#0318A8" opacity="1.000000" stroke="none" 
	d="
M170.097961,64.999046 
	C156.656219,83.580833 143.214478,102.162621 129.253906,121.035034 
	C128.606369,121.642479 128.477676,121.959305 128.348984,122.276131 
	C128.348984,122.276131 128.097061,122.026985 127.789345,122.269028 
	C121.768898,122.714699 116.056038,123.020813 110.343582,123.013290 
	C109.470184,123.012146 108.598701,121.561745 107.726334,120.781631 
	C107.726334,120.781631 107.920670,120.962326 108.079025,120.785965 
	C108.314110,120.304276 108.390846,119.998955 108.467575,119.693634 
	C108.467583,119.693634 108.555748,119.650536 108.889847,119.563538 
	C109.443497,118.917366 109.663040,118.358185 109.882599,117.799011 
	C122.315849,100.612503 134.749100,83.425995 147.730194,65.966354 
	C148.411545,65.355980 148.545044,65.018730 148.678528,64.681473 
	C148.678528,64.681473 148.860703,64.926666 149.063690,64.760330 
	C149.484253,64.028709 149.701828,63.463432 149.919418,62.898151 
	C149.919418,62.898151 149.987091,62.970688 150.179825,62.843422 
	C150.536255,62.412731 150.699951,62.109310 150.863647,61.805885 
	C150.863647,61.805889 150.925690,61.952030 151.103271,61.900131 
	C151.601746,61.767708 151.840759,61.581856 151.997879,61.290672 
	C158.149323,61.255962 164.300766,61.221256 170.842285,61.774578 
	C171.251984,62.663586 171.271606,62.964565 171.291214,63.265549 
	C171.291214,63.265549 171.005585,63.009975 170.892166,63.194702 
	C170.737427,63.700226 170.696121,64.021027 170.654800,64.341827 
	C170.654800,64.341827 170.549286,64.546974 170.312027,64.492889 
	C169.952972,64.444008 169.831192,64.449226 169.709396,64.454437 
	C169.838913,64.635971 169.968445,64.817513 170.097961,64.999046 
z"/>
<path fill="#3A3DB5" opacity="1.000000" stroke="none" 
	d="
M107.419556,120.943619 
	C108.598701,121.561745 109.470184,123.012146 110.343582,123.013290 
	C116.056038,123.020813 121.768898,122.714699 127.902840,122.405029 
	C127.110970,123.125679 125.923363,124.619461 124.680534,124.666916 
	C118.325119,124.909523 111.955460,124.779053 104.942474,124.779053 
	C105.868736,123.211288 106.490768,122.158447 107.419556,120.943619 
z"/>
<path fill="#1F29AC" opacity="1.000000" stroke="none" 
	d="
M149.662064,63.034874 
	C149.701828,63.463432 149.484253,64.028709 148.953094,64.654991 
	C148.894592,64.201195 149.149643,63.686398 149.662064,63.034874 
z"/>
<path fill="#3A3DB5" opacity="1.000000" stroke="none" 
	d="
M109.623581,117.923706 
	C109.663040,118.358185 109.443497,118.917366 108.912872,119.520203 
	C108.856056,119.058716 109.110321,118.553566 109.623581,117.923706 
z"/>
<path fill="#1F29AC" opacity="1.000000" stroke="none" 
	d="
M171.324371,61.469810 
	C171.725052,61.598015 172.125717,61.726219 172.131897,61.802334 
	C171.737381,61.750244 171.324371,61.469810 171.324371,61.469810 
z"/>
<path fill="#1F29AC" opacity="1.000000" stroke="none" 
	d="
M150.594513,61.878212 
	C150.699951,62.109310 150.536255,62.412731 150.132294,62.829269 
	C150.036469,62.611767 150.180923,62.281151 150.594513,61.878212 
z"/>
<path fill="#1F29AC" opacity="1.000000" stroke="none" 
	d="
M171.533661,63.164444 
	C171.271606,62.964565 171.251984,62.663586 171.263092,61.910034 
	C171.293808,61.457458 171.322922,61.536938 171.323639,61.503372 
	C171.324371,61.469810 171.737381,61.750244 171.916504,61.924095 
	C171.989120,62.419746 171.882614,62.741543 171.533661,63.164444 
z"/>
<path fill="#1F29AC" opacity="1.000000" stroke="none" 
	d="
M170.835205,64.212097 
	C170.696121,64.021027 170.737427,63.700226 171.039429,63.317245 
	C171.305038,63.565147 171.210205,63.840912 170.835205,64.212097 
z"/>
<path fill="#1F29AC" opacity="1.000000" stroke="none" 
	d="
M170.205658,64.954514 
	C169.968445,64.817513 169.838913,64.635971 169.709396,64.454437 
	C169.831192,64.449226 169.952972,64.444008 170.218552,64.560471 
	C170.362335,64.682144 170.313339,64.909988 170.205658,64.954514 
z"/>
<path fill="#1F29AC" opacity="1.000000" stroke="none" 
	d="
M148.432526,64.796974 
	C148.545044,65.018730 148.411545,65.355980 148.012161,65.793182 
	C147.893021,65.566246 148.039764,65.239357 148.432526,64.796974 
z"/>
<path fill="#3A3DB5" opacity="1.000000" stroke="none" 
	d="
M108.261139,119.797562 
	C108.390846,119.998955 108.314110,120.304276 107.995407,120.682953 
	C107.739555,120.431099 107.839981,120.146156 108.261139,119.797562 
z"/>
<path fill="#3A3DB5" opacity="1.000000" stroke="none" 
	d="
M128.592743,122.176865 
	C128.477676,121.959305 128.606369,121.642479 128.980408,121.222572 
	C129.095978,121.438858 128.966232,121.758224 128.592743,122.176865 
z"/>
<path fill="#1F29AC" opacity="1.000000" stroke="none" 
	d="
M151.751846,61.206043 
	C151.840759,61.581856 151.601746,61.767708 151.048065,61.843082 
	C151.045471,61.599094 151.275650,61.360256 151.751846,61.206043 
z"/>
</svg>