<svg version="1.1" id="Layer_1" xmlns="http://www.w3.org/2000/svg" xmlns:xlink="http://www.w3.org/1999/xlink" x="0px" y="0px"
	 width="100%" viewBox="0 0 259 194" enable-background="new 0 0 259 194" xml:space="preserve">
<path fill="#FEFEFE" opacity="1.000000" stroke="none" 
	d="
M187.000000,195.000000 
	C124.666672,195.000000 62.833340,195.000000 1.000008,195.000000 
	C1.000005,130.333344 1.000005,65.666679 1.000003,1.000017 
	C87.333321,1.000011 173.666641,1.000011 260.000000,1.000006 
	C260.000000,65.666649 260.000000,130.333298 260.000000,194.999969 
	C235.833328,195.000000 211.666672,195.000000 187.000000,195.000000 
M67.947090,102.879700 
	C68.102180,102.458511 68.257271,102.037315 67.999840,101.012291 
	C67.189110,101.210869 66.378387,101.409454 65.250259,102.004524 
	C65.623451,102.158295 65.996643,102.312065 66.782066,102.694435 
	C66.782066,102.694435 67.254555,102.733116 67.254555,102.733116 
	C67.254555,102.733116 67.653389,102.476875 67.947090,102.879700 
M182.090317,132.352463 
	C182.192505,132.390427 182.294708,132.428406 182.396896,132.466370 
	C182.290375,132.291245 182.183853,132.116119 182.025131,131.172882 
	C181.780685,128.602631 181.536240,126.032372 181.251755,123.040977 
	C177.911285,127.822220 178.145004,129.794113 182.090317,132.352463 
M49.012432,109.579445 
	C45.124844,107.843803 44.759514,104.802605 47.925217,100.528877 
	C43.420967,100.511673 42.827782,102.281471 44.650280,111.227982 
	C46.332928,110.848289 48.007347,110.470459 50.368408,109.709892 
	C52.559227,106.977737 52.566414,104.361336 50.800461,101.838928 
	C50.202244,101.884453 49.604027,101.929985 49.005810,101.975510 
	C49.287392,104.445107 49.568977,106.914703 49.012432,109.579445 
M67.138130,130.516235 
	C67.584351,131.143921 68.030571,131.771591 68.476791,132.399277 
	C68.659271,132.230560 68.841743,132.061829 69.024223,131.893097 
	C68.336571,131.269089 67.648926,130.645065 67.089989,129.303650 
	C67.377762,127.511116 68.380196,125.380569 67.739967,124.026970 
	C67.169815,122.821510 64.781326,122.476089 62.743053,121.544357 
	C62.743053,125.959930 62.743053,129.224014 62.743053,131.255142 
	C64.310928,130.779434 65.672455,130.366318 67.138130,130.516235 
M28.067413,75.554779 
	C28.375488,75.694107 28.683565,75.833427 29.847971,76.076996 
	C31.570496,76.032936 33.293018,75.988876 35.515274,75.916214 
	C35.630253,75.623672 35.745232,75.331139 35.989235,74.104309 
	C35.944298,63.724052 35.899357,53.343796 35.912430,42.504036 
	C35.912430,42.504036 35.758183,42.067322 35.395962,41.410954 
	C32.992680,41.624725 30.589397,41.838497 28.007420,42.501522 
	C28.007420,42.501522 28.064577,42.981621 27.930977,43.913261 
	C27.966646,54.279156 28.002316,64.645050 28.067413,75.554779 
M47.529518,75.941551 
	C47.635101,75.640076 47.740685,75.338608 47.971344,74.102654 
	C47.971344,63.202404 47.971344,52.302158 47.971344,40.728127 
	C44.806671,41.257729 42.475792,41.647797 39.948818,42.498264 
	C39.975517,42.662922 40.002220,42.827579 39.873405,43.919842 
	C39.918468,54.280651 39.963531,64.641457 40.018948,75.566757 
	C40.342640,75.699074 40.666328,75.831390 41.843426,76.097473 
	C43.566891,76.045959 45.290356,75.994453 47.529518,75.941551 
M51.842804,43.920254 
	C51.896664,54.280544 51.950523,64.640839 51.995331,75.579437 
	C52.326710,75.706657 52.658089,75.833870 53.888577,76.103615 
	C55.809353,76.103615 57.730129,76.103615 59.608818,76.103615 
	C59.608818,64.139832 59.608818,52.780506 59.608818,40.829235 
	C56.831638,41.280518 54.494354,41.660316 51.925995,42.494217 
	C51.955925,42.661400 51.985851,42.828579 51.842804,43.920254 
M71.780380,75.591042 
	C71.780380,66.829636 71.780380,58.068230 71.780380,49.089321 
	C74.518333,48.951874 76.628296,48.845955 79.019348,48.725922 
	C79.019348,46.231361 79.019348,43.841087 79.019348,40.790737 
	C73.786598,41.229298 68.966972,41.633236 63.912773,42.493252 
	C63.947048,42.660740 63.981327,42.828224 63.825935,43.917267 
	C63.882828,54.277893 63.939724,64.638519 63.969425,75.590370 
	C64.309914,75.715530 64.650398,75.840691 65.818321,76.126060 
	C67.216515,76.066292 68.614708,76.006523 70.499329,76.059753 
	C70.499329,76.059753 70.976852,75.913612 71.780380,75.591042 
M86.187538,66.755890 
	C82.990814,67.871040 79.794090,68.986191 76.343925,70.189751 
	C75.364571,75.523758 76.315239,76.660820 82.021400,75.996826 
	C87.632080,75.343933 92.159172,72.701576 95.121277,67.850380 
	C98.506012,62.307011 98.668259,56.429455 95.726463,50.696548 
	C93.192184,45.757832 89.139496,42.695389 81.882866,41.864201 
	C83.184937,45.193108 83.491234,48.214855 85.159912,49.822514 
	C90.159874,54.639645 90.986794,60.244366 86.187538,66.755890 
M27.986502,152.052521 
	C28.336784,156.289627 31.894579,154.855743 33.035229,153.890015 
	C34.609440,152.557190 36.041756,149.699097 35.735012,147.782349 
	C35.077919,143.676346 31.624964,143.945740 27.984306,144.431656 
	C27.984306,146.918869 27.984306,149.052490 27.986502,152.052521 
M61.342995,144.854843 
	C60.845211,145.970566 60.347431,147.086288 59.470901,149.050934 
	C58.248894,146.562607 57.599987,145.241272 56.951080,143.919937 
	C56.634319,144.000061 56.317554,144.080185 56.000790,144.160309 
	C56.000790,147.644836 56.000790,151.129364 56.000790,154.613892 
	C56.310081,154.602554 56.619373,154.591217 56.928661,154.579880 
	C57.345768,153.369736 57.762875,152.159576 58.179985,150.949432 
	C59.728683,152.161530 61.277382,153.373642 62.820614,154.581467 
	C64.914642,150.286667 64.544456,146.064178 61.342995,144.854843 
M82.165642,104.622330 
	C82.266006,106.630501 82.366371,108.638680 82.466736,110.646851 
	C82.771118,110.634537 83.075493,110.622223 83.379875,110.609917 
	C83.868240,109.447342 84.356598,108.284767 84.918510,106.947105 
	C86.293205,108.438469 87.331444,109.564827 88.193169,110.499680 
	C88.193169,108.673653 87.704247,106.730293 88.299446,105.211884 
	C89.390022,102.429733 88.467545,101.086632 85.932739,100.433746 
	C83.146996,99.716225 81.829781,100.860657 82.165642,104.622330 
M73.936882,100.677261 
	C73.664612,103.934265 73.392349,107.191277 73.120079,110.448280 
	C74.992195,109.311356 75.838882,108.155327 76.715881,107.022781 
	C77.801323,105.621017 78.911926,104.238739 80.011658,102.848045 
	C78.231827,102.020958 76.451988,101.193863 73.936882,100.677261 
M57.726711,107.359352 
	C58.881214,106.124176 60.035721,104.889000 61.658527,103.152794 
	C58.636692,102.042755 56.755619,97.643913 54.442696,101.824448 
	C53.182114,104.102913 54.217693,107.651749 54.217693,110.627640 
	C54.550850,110.634186 54.884010,110.640732 55.217167,110.647285 
	C55.828014,109.495453 56.438866,108.343628 57.726711,107.359352 
M90.120552,124.282928 
	C88.891022,124.268791 86.744980,123.889893 86.581718,124.300110 
	C85.572891,126.834938 85.010445,129.547424 84.467133,131.575745 
	C86.983139,130.891006 89.176071,130.294189 91.735153,129.597733 
	C91.355415,128.361801 90.843224,126.694786 90.120552,124.282928 
M47.176712,149.506943 
	C47.255611,151.088623 47.334515,152.670303 47.435940,154.703430 
	C49.688919,154.516449 51.431244,154.371857 52.052483,154.320312 
	C50.816368,150.504257 49.779354,147.302841 48.742336,144.101440 
	C48.367329,144.118774 47.992317,144.136108 47.617310,144.153442 
	C47.470402,145.649078 47.323490,147.144714 47.176712,149.506943 
M78.256493,129.016495 
	C78.665321,128.441940 79.074150,127.867401 79.742180,126.928589 
	C80.112961,129.197601 80.381142,130.838776 80.649323,132.479935 
	C80.938828,132.427765 81.228333,132.375595 81.517838,132.323425 
	C81.517838,128.973907 81.517838,125.624390 81.517838,122.274872 
	C80.943253,122.148186 80.368668,122.021492 79.794083,121.894798 
	C79.093887,124.285606 78.393700,126.676422 78.256493,129.016495 
M123.756683,108.470642 
	C123.991570,109.073921 124.226448,109.677200 124.898308,111.402809 
	C124.898308,107.203598 124.898308,104.261177 124.898308,101.743851 
	C123.776917,102.751030 122.628937,104.573448 121.303291,104.713432 
	C120.306442,104.818695 119.081581,102.764732 117.966354,101.679886 
	C117.966354,104.441818 117.966354,107.360664 117.966354,110.279510 
	C118.160614,110.304352 118.354866,110.329185 118.549126,110.354027 
	C118.835915,109.013649 119.122711,107.673271 119.594688,105.467407 
	C121.245201,106.357140 122.474907,107.020027 123.756683,108.470642 
M112.919609,130.749573 
	C116.027824,128.177368 115.854385,125.554977 111.807533,122.384872 
	C112.105278,125.287163 112.353043,127.702286 112.919609,130.749573 
M54.000610,125.870659 
	C53.743843,125.047241 53.487072,124.223816 53.230301,123.400398 
	C52.634216,123.483925 52.038132,123.567444 51.442043,123.650970 
	C51.677513,126.288757 51.912983,128.926544 52.148453,131.564331 
	C52.696217,131.536758 53.243977,131.509186 53.791740,131.481613 
	C53.862076,129.873657 53.932411,128.265701 54.000610,125.870659 
M199.999847,127.412201 
	C199.999847,125.966278 199.999847,124.520363 199.999847,122.502319 
	C196.906509,125.787384 195.602066,128.549118 199.741058,131.908890 
	C199.845917,130.409332 199.923706,129.296631 199.999847,127.412201 
M95.652321,105.678795 
	C96.285103,105.405289 96.917885,105.131783 97.550674,104.858276 
	C96.743538,103.385269 95.936401,101.912262 95.129272,100.439262 
	C94.443558,100.766418 93.757843,101.093575 93.072128,101.420731 
	C93.743851,102.740524 94.415565,104.060310 95.652321,105.678795 
M106.523102,129.584213 
	C107.218224,130.654373 107.913338,131.724518 108.608459,132.794678 
	C108.994652,132.500732 109.380852,132.206787 109.767044,131.912842 
	C108.844444,131.011871 107.921852,130.110916 106.523102,129.584213 
M107.264847,126.268997 
	C107.918777,125.261925 108.572701,124.254852 109.226631,123.247772 
	C108.764069,123.002571 108.301514,122.757370 107.838951,122.512161 
	C107.444061,123.796242 107.049164,125.080315 107.264847,126.268997 
M69.342308,104.555923 
	C67.959694,104.398468 66.577087,104.241013 65.194473,104.083565 
	C65.165001,104.387711 65.135529,104.691856 65.106056,104.995995 
	C66.555161,105.059868 68.004272,105.123741 69.342308,104.555923 
M187.833603,129.108276 
	C186.949921,129.443268 186.066254,129.778275 185.182556,130.113266 
	C185.446945,130.623779 185.711334,131.134293 185.975754,131.644821 
	C186.617096,131.013351 187.258453,130.381897 187.833603,129.108276 
M203.383759,132.233719 
	C203.682159,131.661072 203.980576,131.088409 204.278992,130.515762 
	C204.023422,130.433441 203.767868,130.351135 203.512314,130.268814 
	C203.372696,130.783798 203.233063,131.298782 203.383759,132.233719 
M204.443680,124.493401 
	C204.150070,124.179466 203.856476,123.865532 203.562881,123.551590 
	C203.453751,123.665878 203.238937,123.866989 203.251007,123.881660 
	C203.508881,124.195503 203.792175,124.488434 204.443680,124.493401 
M186.376511,125.523018 
	C186.161972,125.468109 185.947433,125.413200 185.732895,125.358292 
	C185.870895,125.493843 186.008911,125.629387 186.376511,125.523018 
z"/>
<path fill="#3DB0AA" opacity="1.000000" stroke="none" 
	d="
M86.479660,66.476257 
	C90.986794,60.244366 90.159874,54.639645 85.159912,49.822514 
	C83.491234,48.214855 83.184937,45.193108 81.882866,41.864201 
	C89.139496,42.695389 93.192184,45.757832 95.726463,50.696548 
	C98.668259,56.429455 98.506012,62.307011 95.121277,67.850380 
	C92.159172,72.701576 87.632080,75.343933 82.021400,75.996826 
	C76.315239,76.660820 75.364571,75.523758 76.343925,70.189751 
	C79.794090,68.986191 82.990814,67.871040 86.479660,66.476257 
z"/>
<path fill="#5D5D5F" opacity="1.000000" stroke="none" 
	d="
M70.012901,75.946747 
	C68.614708,76.006523 67.216515,76.066292 65.306992,75.823654 
	C64.593918,75.248352 64.327568,75.074318 63.996616,74.999146 
	C63.939724,64.638519 63.882828,54.277893 64.084106,43.382523 
	C64.417946,42.756931 64.576088,42.619003 64.555573,42.583057 
	C64.443787,42.387230 64.287994,42.216522 64.147346,42.037170 
	C68.966972,41.633236 73.786598,41.229298 79.019348,40.790737 
	C79.019348,43.841087 79.019348,46.231361 79.019348,48.725922 
	C76.628296,48.845955 74.518333,48.951874 71.780380,49.089321 
	C71.780380,58.068230 71.780380,66.829636 71.287094,75.595993 
	C70.533501,75.716209 70.273201,75.831482 70.012901,75.946747 
z"/>
<path fill="#6F7074" opacity="1.000000" stroke="none" 
	d="
M52.157066,42.040119 
	C54.494354,41.660316 56.831638,41.280518 59.608818,40.829235 
	C59.608818,52.780506 59.608818,64.139832 59.608818,76.103615 
	C57.730129,76.103615 55.809353,76.103615 53.337326,75.815735 
	C52.586933,75.261139 52.326370,75.085564 52.004379,75.001129 
	C51.950523,64.640839 51.896664,54.280544 52.091282,43.384674 
	C52.414608,42.758873 52.571335,42.624329 52.550526,42.585876 
	C52.444653,42.390274 52.292812,42.219555 52.157066,42.040119 
z"/>
<path fill="#828387" opacity="1.000000" stroke="none" 
	d="
M40.008595,75.002266 
	C39.963531,64.641457 39.918468,54.280651 40.110535,43.380112 
	C40.418480,42.748013 40.569012,42.610672 40.546581,42.570919 
	C40.438210,42.378834 40.283310,42.213001 40.144909,42.037861 
	C42.475792,41.647797 44.806671,41.257729 47.971344,40.728127 
	C47.971344,52.302158 47.971344,63.202404 47.721512,74.670761 
	C47.243134,75.424179 47.090515,75.658867 47.013821,75.942940 
	C45.290356,75.994453 43.566891,76.045959 41.313377,75.815765 
	C40.585835,75.268295 40.327587,75.091034 40.008595,75.002266 
z"/>
<path fill="#95969A" opacity="1.000000" stroke="none" 
	d="
M28.186115,42.052273 
	C30.589397,41.838497 32.992680,41.624725 35.451050,41.834766 
	C35.363255,42.592495 35.479351,42.827484 35.854416,42.963539 
	C35.899357,53.343796 35.944298,63.724052 35.735435,74.671562 
	C35.250610,75.424187 35.095249,75.659523 35.015545,75.944817 
	C33.293018,75.988876 31.570496,76.032936 29.320189,75.812073 
	C28.603331,75.280640 28.351856,75.101906 28.037987,75.010948 
	C28.002316,64.645050 27.966646,54.279156 28.150639,43.373665 
	C28.437820,42.744762 28.581839,42.615211 28.559677,42.573090 
	C28.461151,42.385807 28.315029,42.223564 28.186115,42.052273 
z"/>
<path fill="#3AB0AA" opacity="1.000000" stroke="none" 
	d="
M27.985405,151.619324 
	C27.984306,149.052490 27.984306,146.918869 27.984306,144.431656 
	C31.624964,143.945740 35.077919,143.676346 35.735012,147.782349 
	C36.041756,149.699097 34.609440,152.557190 33.035229,153.890015 
	C31.894579,154.855743 28.336784,156.289627 27.985405,151.619324 
z"/>
<path fill="#8DCECA" opacity="1.000000" stroke="none" 
	d="
M61.621071,144.564865 
	C64.544456,146.064178 64.914642,150.286667 62.820614,154.581467 
	C61.277382,153.373642 59.728683,152.161530 58.179985,150.949432 
	C57.762875,152.159576 57.345768,153.369736 56.928661,154.579880 
	C56.619373,154.591217 56.310081,154.602554 56.000790,154.613892 
	C56.000790,151.129364 56.000790,147.644836 56.000790,144.160309 
	C56.317554,144.080185 56.634319,144.000061 56.951080,143.919937 
	C57.599987,145.241272 58.248894,146.562607 59.470901,149.050934 
	C60.347431,147.086288 60.845211,145.970566 61.621071,144.564865 
z"/>
<path fill="#8D8E92" opacity="1.000000" stroke="none" 
	d="
M82.166054,104.196335 
	C81.829781,100.860657 83.146996,99.716225 85.932739,100.433746 
	C88.467545,101.086632 89.390022,102.429733 88.299446,105.211884 
	C87.704247,106.730293 88.193169,108.673653 88.193169,110.499680 
	C87.331444,109.564827 86.293205,108.438469 84.918510,106.947105 
	C84.356598,108.284767 83.868240,109.447342 83.379875,110.609917 
	C83.075493,110.622223 82.771118,110.634537 82.466736,110.646851 
	C82.366371,108.638680 82.266006,106.630501 82.166054,104.196335 
z"/>
<path fill="#8A8B8E" opacity="1.000000" stroke="none" 
	d="
M74.304520,100.522018 
	C76.451988,101.193863 78.231827,102.020958 80.011658,102.848045 
	C78.911926,104.238739 77.801323,105.621017 76.715881,107.022781 
	C75.838882,108.155327 74.992195,109.311356 73.120079,110.448280 
	C73.392349,107.191277 73.664612,103.934265 74.304520,100.522018 
z"/>
<path fill="#8D8E92" opacity="1.000000" stroke="none" 
	d="
M67.033981,129.953217 
	C65.672455,130.366318 64.310928,130.779434 62.743053,131.255142 
	C62.743053,129.224014 62.743053,125.959930 62.743053,121.544357 
	C64.781326,122.476089 67.169815,122.821510 67.739967,124.026970 
	C68.380196,125.380569 67.377762,127.511116 67.045822,129.647552 
	C67.001648,129.991440 67.033981,129.953217 67.033981,129.953217 
z"/>
<path fill="#919295" opacity="1.000000" stroke="none" 
	d="
M57.388214,107.275574 
	C56.438866,108.343628 55.828014,109.495453 55.217167,110.647285 
	C54.884010,110.640732 54.550850,110.634186 54.217693,110.627640 
	C54.217693,107.651749 53.182114,104.102913 54.442696,101.824448 
	C56.755619,97.643913 58.636692,102.042755 61.658527,103.152794 
	C60.035721,104.889000 58.881214,106.124176 57.388214,107.275574 
z"/>
<path fill="#7E7F82" opacity="1.000000" stroke="none" 
	d="
M90.225800,124.655350 
	C90.843224,126.694786 91.355415,128.361801 91.735153,129.597733 
	C89.176071,130.294189 86.983139,130.891006 84.467133,131.575745 
	C85.010445,129.547424 85.572891,126.834938 86.581718,124.300110 
	C86.744980,123.889893 88.891022,124.268791 90.225800,124.655350 
z"/>
<path fill="#59BCB7" opacity="1.000000" stroke="none" 
	d="
M47.176647,149.073639 
	C47.323490,147.144714 47.470402,145.649078 47.617310,144.153442 
	C47.992317,144.136108 48.367329,144.118774 48.742336,144.101440 
	C49.779354,147.302841 50.816368,150.504257 52.052483,154.320312 
	C51.431244,154.371857 49.688919,154.516449 47.435940,154.703430 
	C47.334515,152.670303 47.255611,151.088623 47.176647,149.073639 
z"/>
<path fill="#919295" opacity="1.000000" stroke="none" 
	d="
M77.974998,129.041870 
	C78.393700,126.676422 79.093887,124.285606 79.794083,121.894798 
	C80.368668,122.021492 80.943253,122.148186 81.517838,122.274872 
	C81.517838,125.624390 81.517838,128.973907 81.517838,132.323425 
	C81.228333,132.375595 80.938828,132.427765 80.649323,132.479935 
	C80.381142,130.838776 80.112961,129.197601 79.742180,126.928589 
	C79.074150,127.867401 78.665321,128.441940 77.974998,129.041870 
z"/>
<path fill="#98999C" opacity="1.000000" stroke="none" 
	d="
M49.681767,110.092621 
	C48.007347,110.470459 46.332928,110.848289 44.650280,111.227982 
	C42.827782,102.281471 43.420967,100.511673 47.925217,100.528877 
	C44.759514,104.802605 45.124844,107.843803 49.327488,109.641769 
	C49.642544,109.704086 49.681767,110.092628 49.681767,110.092621 
z"/>
<path fill="#68696D" opacity="1.000000" stroke="none" 
	d="
M123.730652,108.076782 
	C122.474907,107.020027 121.245201,106.357140 119.594688,105.467407 
	C119.122711,107.673271 118.835915,109.013649 118.549126,110.354027 
	C118.354866,110.329185 118.160614,110.304352 117.966354,110.279510 
	C117.966354,107.360664 117.966354,104.441818 117.966354,101.679886 
	C119.081581,102.764732 120.306442,104.818695 121.303291,104.713432 
	C122.628937,104.573448 123.776917,102.751030 124.898308,101.743851 
	C124.898308,104.261177 124.898308,107.203598 124.898308,111.402809 
	C124.226448,109.677200 123.991570,109.073921 123.730652,108.076782 
z"/>
<path fill="#FAFAFA" opacity="1.000000" stroke="none" 
	d="
M112.760208,130.433487 
	C112.353043,127.702286 112.105278,125.287163 111.807533,122.384872 
	C115.854385,125.554977 116.027824,128.177368 112.760208,130.433487 
z"/>
<path fill="#FAFAFA" opacity="1.000000" stroke="none" 
	d="
M54.001678,126.264206 
	C53.932411,128.265701 53.862076,129.873657 53.791740,131.481613 
	C53.243977,131.509186 52.696217,131.536758 52.148453,131.564331 
	C51.912983,128.926544 51.677513,126.288757 51.442043,123.650970 
	C52.038132,123.567444 52.634216,123.483925 53.230301,123.400398 
	C53.487072,124.223816 53.743843,125.047241 54.001678,126.264206 
z"/>
<path fill="#F4F4F4" opacity="1.000000" stroke="none" 
	d="
M200.000671,127.798073 
	C199.923706,129.296631 199.845917,130.409332 199.741058,131.908890 
	C195.602066,128.549118 196.906509,125.787384 199.999847,122.502319 
	C199.999847,124.520363 199.999847,125.966278 200.000671,127.798073 
z"/>
<path fill="#F7F7F8" opacity="1.000000" stroke="none" 
	d="
M181.933838,132.087692 
	C178.145004,129.794113 177.911285,127.822220 181.251755,123.040977 
	C181.536240,126.032372 181.780685,128.602631 182.012894,131.591202 
	C182.000656,132.009521 181.933838,132.087692 181.933838,132.087692 
z"/>
<path fill="#F9F9FA" opacity="1.000000" stroke="none" 
	d="
M50.025085,109.901260 
	C49.681767,110.092628 49.642544,109.704086 49.746552,109.544189 
	C49.568977,106.914703 49.287392,104.445107 49.005810,101.975510 
	C49.604027,101.929985 50.202244,101.884453 50.800461,101.838928 
	C52.566414,104.361336 52.559227,106.977737 50.025085,109.901260 
z"/>
<path fill="#B0B1B2" opacity="1.000000" stroke="none" 
	d="
M95.369804,105.529449 
	C94.415565,104.060310 93.743851,102.740524 93.072128,101.420731 
	C93.757843,101.093575 94.443558,100.766418 95.129272,100.439262 
	C95.936401,101.912262 96.743538,103.385269 97.550674,104.858276 
	C96.917885,105.131783 96.285103,105.405289 95.369804,105.529449 
z"/>
<path fill="#FAFAFA" opacity="1.000000" stroke="none" 
	d="
M106.761177,129.397079 
	C107.921852,130.110916 108.844444,131.011871 109.767044,131.912842 
	C109.380852,132.206787 108.994652,132.500732 108.608459,132.794678 
	C107.913338,131.724518 107.218224,130.654373 106.761177,129.397079 
z"/>
<path fill="#FAFAFA" opacity="1.000000" stroke="none" 
	d="
M106.959564,126.316696 
	C107.049164,125.080315 107.444061,123.796242 107.838951,122.512161 
	C108.301514,122.757370 108.764069,123.002571 109.226631,123.247772 
	C108.572701,124.254852 107.918777,125.261925 106.959564,126.316696 
z"/>
<path fill="#B0B1B2" opacity="1.000000" stroke="none" 
	d="
M69.397842,104.871765 
	C68.004272,105.123741 66.555161,105.059868 65.106056,104.995995 
	C65.135529,104.691856 65.165001,104.387711 65.194473,104.083565 
	C66.577087,104.241013 67.959694,104.398468 69.397842,104.871765 
z"/>
<path fill="#F7F7F8" opacity="1.000000" stroke="none" 
	d="
M187.866699,129.429352 
	C187.258453,130.381897 186.617096,131.013351 185.975739,131.644806 
	C185.711334,131.134293 185.446945,130.623779 185.182556,130.113266 
	C186.066254,129.778275 186.949921,129.443268 187.866699,129.429352 
z"/>
<path fill="#8D8E92" opacity="1.000000" stroke="none" 
	d="
M66.981461,130.006256 
	C67.648926,130.645065 68.336571,131.269089 69.024223,131.893097 
	C68.841743,132.061829 68.659271,132.230560 68.476791,132.399277 
	C68.030571,131.771591 67.584351,131.143921 67.086060,130.234726 
	C67.033981,129.953217 67.001648,129.991440 66.981461,130.006256 
z"/>
<path fill="#F4F4F4" opacity="1.000000" stroke="none" 
	d="
M203.238602,132.023743 
	C203.233063,131.298782 203.372696,130.783798 203.512314,130.268814 
	C203.767868,130.351135 204.023422,130.433441 204.278992,130.515762 
	C203.980576,131.088409 203.682159,131.661072 203.238602,132.023743 
z"/>
<path fill="#F4F4F4" opacity="1.000000" stroke="none" 
	d="
M204.257111,124.639412 
	C203.792175,124.488434 203.508881,124.195503 203.251007,123.881660 
	C203.238937,123.866989 203.453751,123.665878 203.562881,123.551590 
	C203.856476,123.865532 204.150070,124.179466 204.257111,124.639412 
z"/>
<path fill="#B0B1B2" opacity="1.000000" stroke="none" 
	d="
M65.567657,101.608032 
	C66.378387,101.409454 67.189110,101.210869 68.002991,101.517609 
	C67.888557,102.174240 67.770973,102.325562 67.653389,102.476875 
	C67.653389,102.476875 67.254555,102.733116 67.254555,102.733116 
	C67.254555,102.733116 66.782066,102.694435 66.386269,102.355530 
	C65.849525,101.880432 65.708588,101.744232 65.567657,101.608032 
z"/>
<path fill="#F7F7F8" opacity="1.000000" stroke="none" 
	d="
M186.261719,125.643974 
	C186.008911,125.629387 185.870895,125.493843 185.732895,125.358292 
	C185.947433,125.413200 186.161972,125.468109 186.261719,125.643974 
z"/>
<path fill="#8D8E92" opacity="1.000000" stroke="none" 
	d="
M28.096767,42.276897 
	C28.315029,42.223564 28.461151,42.385807 28.559677,42.573090 
	C28.581839,42.615211 28.437820,42.744762 28.217440,42.907845 
	C28.064577,42.981621 28.007420,42.501522 28.096767,42.276897 
z"/>
<path fill="#F7F7F8" opacity="1.000000" stroke="none" 
	d="
M182.039001,131.975250 
	C182.183853,132.116119 182.290375,132.291245 182.396896,132.466370 
	C182.294708,132.428406 182.192505,132.390427 182.012085,132.220078 
	C181.933838,132.087692 182.000656,132.009521 182.039001,131.975250 
z"/>
<path fill="#B0B1B2" opacity="1.000000" stroke="none" 
	d="
M68.209259,101.819527 
	C68.257271,102.037315 68.102180,102.458511 67.800240,102.678284 
	C67.770973,102.325562 67.888557,102.174240 68.209259,101.819527 
z"/>
<path fill="#797A7E" opacity="1.000000" stroke="none" 
	d="
M40.046864,42.268063 
	C40.283310,42.213001 40.438210,42.378834 40.546581,42.570919 
	C40.569012,42.610672 40.418480,42.748013 40.188293,42.916306 
	C40.002220,42.827579 39.975517,42.662922 40.046864,42.268063 
z"/>
<path fill="#B0B1B2" opacity="1.000000" stroke="none" 
	d="
M66.180153,102.241241 
	C65.996643,102.312065 65.623451,102.158295 65.408958,101.806274 
	C65.708588,101.744232 65.849525,101.880432 66.180153,102.241241 
z"/>
<path fill="#4B4B4E" opacity="1.000000" stroke="none" 
	d="
M70.256119,76.003250 
	C70.273201,75.831482 70.533501,75.716209 70.885330,75.757278 
	C70.976852,75.913612 70.499329,76.059753 70.256119,76.003250 
z"/>
<path fill="#4B4B4E" opacity="1.000000" stroke="none" 
	d="
M63.983021,75.294754 
	C64.327568,75.074318 64.593918,75.248352 64.893280,75.743546 
	C64.650398,75.840691 64.309914,75.715530 63.983021,75.294754 
z"/>
<path fill="#626367" opacity="1.000000" stroke="none" 
	d="
M51.999855,75.290283 
	C52.326370,75.085564 52.586933,75.261139 52.887772,75.744469 
	C52.658089,75.833870 52.326710,75.706657 51.999855,75.290283 
z"/>
<path fill="#797A7E" opacity="1.000000" stroke="none" 
	d="
M47.271667,75.942245 
	C47.090515,75.658867 47.243134,75.424179 47.658974,75.138000 
	C47.740685,75.338608 47.635101,75.640076 47.271667,75.942245 
z"/>
<path fill="#797A7E" opacity="1.000000" stroke="none" 
	d="
M40.013771,75.284515 
	C40.327587,75.091034 40.585835,75.268295 40.886677,75.748878 
	C40.666328,75.831390 40.342640,75.699074 40.013771,75.284515 
z"/>
<path fill="#8D8E92" opacity="1.000000" stroke="none" 
	d="
M35.265411,75.930511 
	C35.095249,75.659523 35.250610,75.424187 35.670921,75.138702 
	C35.745232,75.331139 35.630253,75.623672 35.265411,75.930511 
z"/>
<path fill="#8D8E92" opacity="1.000000" stroke="none" 
	d="
M28.052700,75.282867 
	C28.351856,75.101906 28.603331,75.280640 28.892025,75.759949 
	C28.683565,75.833427 28.375488,75.694107 28.052700,75.282867 
z"/>
<path fill="#8D8E92" opacity="1.000000" stroke="none" 
	d="
M35.883423,42.733788 
	C35.479351,42.827484 35.363255,42.592495 35.632156,42.162949 
	C35.758183,42.067322 35.912430,42.504036 35.883423,42.733788 
z"/>
<path fill="#4B4B4E" opacity="1.000000" stroke="none" 
	d="
M64.030060,42.265213 
	C64.287994,42.216522 64.443787,42.387230 64.555573,42.583057 
	C64.576088,42.619003 64.417946,42.756931 64.178940,42.921745 
	C63.981327,42.828224 63.947048,42.660740 64.030060,42.265213 
z"/>
<path fill="#626367" opacity="1.000000" stroke="none" 
	d="
M52.041531,42.267166 
	C52.292812,42.219555 52.444653,42.390274 52.550526,42.585876 
	C52.571335,42.624329 52.414608,42.758873 52.177765,42.922424 
	C51.985851,42.828579 51.955925,42.661400 52.041531,42.267166 
z"/>
</svg>