<svg version="1.1" id="Layer_1" xmlns="http://www.w3.org/2000/svg" xmlns:xlink="http://www.w3.org/1999/xlink" x="0px" y="0px"
	 width="100%" viewBox="0 0 170 170" enable-background="new 0 0 170 170" xml:space="preserve">
<path fill="#FEFEFE" opacity="1.000000" stroke="none" 
	d="
M103.000000,171.000000 
	C68.666672,171.000000 34.833340,171.000000 1.000009,171.000000 
	C1.000006,114.333344 1.000006,57.666687 1.000003,1.000024 
	C57.666653,1.000016 114.333305,1.000016 170.999969,1.000008 
	C170.999969,57.666641 170.999969,114.333282 170.999985,170.999969 
	C148.500000,171.000000 126.000000,171.000000 103.000000,171.000000 
M159.796326,128.608978 
	C159.863968,119.823334 160.044281,111.035622 159.883453,102.254166 
	C159.857971,100.862114 158.623306,98.960495 157.390259,98.208511 
	C149.338608,93.298080 141.139450,88.628990 132.972778,83.908226 
	C131.471832,83.040611 129.898972,82.297462 127.671509,81.139221 
	C127.671509,91.303185 127.671509,100.563606 127.036209,110.059723 
	C113.706223,117.825378 100.376228,125.591034 86.302284,133.254044 
	C85.277786,132.737610 84.229774,132.262741 83.232361,131.698410 
	C71.079750,124.822563 58.934563,117.933586 46.365608,110.404930 
	C46.002232,108.718063 45.349167,107.035324 45.325008,105.343613 
	C45.212997,97.500389 45.275482,89.654678 45.275482,80.934830 
	C34.491421,87.148453 24.606686,92.770210 14.837949,98.586800 
	C13.863916,99.166763 13.094451,100.926796 13.080985,102.148514 
	C12.989642,110.436211 13.127015,118.726425 13.075913,127.726936 
	C24.043024,134.184891 35.010136,140.642853 46.298500,147.697556 
	C59.565983,155.412125 72.833466,163.126694 86.998856,170.887833 
	C101.045929,162.616928 115.093002,154.346024 129.831482,145.992889 
	C139.545593,140.295197 149.259705,134.597488 159.796326,128.608978 
M86.691566,38.774330 
	C110.944237,52.651024 135.196915,66.527710 160.000412,80.719574 
	C160.000412,68.628960 160.109955,57.477467 159.872513,46.333374 
	C159.839996,44.807682 158.430878,42.742661 157.061386,41.907635 
	C148.980820,36.980591 140.738235,32.317608 132.522247,27.614576 
	C117.393158,18.954302 102.244698,10.327873 86.437157,1.135045 
	C62.849117,14.735196 39.247475,28.311972 15.712519,42.003368 
	C14.515046,42.699993 13.139445,44.370014 13.117887,45.608936 
	C12.919108,57.032509 13.000668,68.460960 13.000668,80.901779 
	C37.820843,66.524658 61.887043,52.584278 86.691566,38.774330 
z"/>
<path fill="#272A30" opacity="1.000000" stroke="none" 
	d="
M85.953247,38.643898 
	C61.887043,52.584278 37.820843,66.524658 13.000668,80.901779 
	C13.000668,68.460960 12.919108,57.032509 13.117887,45.608936 
	C13.139445,44.370014 14.515046,42.699993 15.712519,42.003368 
	C39.247475,28.311972 62.849117,14.735196 86.715508,1.722943 
	C86.837341,4.569136 86.591637,6.825383 86.539719,9.086080 
	C86.313484,18.937981 86.143593,28.791174 85.953247,38.643898 
z"/>
<path fill="#3F4146" opacity="1.000000" stroke="none" 
	d="
M86.322403,38.709114 
	C86.143593,28.791174 86.313484,18.937981 86.539719,9.086080 
	C86.591637,6.825383 86.837341,4.569136 87.049080,1.999091 
	C102.244698,10.327873 117.393158,18.954302 132.522247,27.614576 
	C140.738235,32.317608 148.980820,36.980591 157.061386,41.907635 
	C158.430878,42.742661 159.839996,44.807682 159.872513,46.333374 
	C160.109955,57.477467 160.000412,68.628960 160.000412,80.719574 
	C135.196915,66.527710 110.944237,52.651024 86.322403,38.709114 
z"/>
<path fill="#272A30" opacity="1.000000" stroke="none" 
	d="
M129.140076,146.075134 
	C115.093002,154.346024 101.045929,162.616928 86.831367,170.578339 
	C86.791336,157.964783 86.918793,145.660736 87.046242,133.356689 
	C100.376228,125.591034 113.706223,117.825378 127.623062,110.074539 
	C128.488586,110.369026 128.767242,110.648705 128.739243,111.225922 
	C128.315567,122.510460 128.183640,133.497375 128.127213,144.484665 
	C128.124496,145.013077 128.787231,145.544907 129.140076,146.075134 
z"/>
<path fill="#3F4146" opacity="1.000000" stroke="none" 
	d="
M86.674263,133.305359 
	C86.918793,145.660736 86.791336,157.964783 86.382416,170.555054 
	C72.833466,163.126694 59.565983,155.412125 46.129456,146.924026 
	C45.846233,134.458649 45.732056,122.766808 45.909416,111.031189 
	C46.396454,111.007614 46.591949,111.027817 46.787449,111.048012 
	C58.934563,117.933586 71.079750,124.822563 83.232361,131.698410 
	C84.229774,132.262741 85.277786,132.737610 86.674263,133.305359 
z"/>
<path fill="#26292F" opacity="1.000000" stroke="none" 
	d="
M46.576530,110.726471 
	C46.591949,111.027817 46.396454,111.007614 45.557411,111.005844 
	C41.512081,112.627693 38.066708,114.145576 34.717484,115.852150 
	C27.515562,119.521858 20.363155,123.288734 13.190479,127.015831 
	C13.127015,118.726425 12.989642,110.436211 13.080985,102.148514 
	C13.094451,100.926796 13.863916,99.166763 14.837949,98.586800 
	C24.606686,92.770210 34.491421,87.148453 45.275482,80.934830 
	C45.275482,89.654678 45.212997,97.500389 45.325008,105.343613 
	C45.349167,107.035324 46.002232,108.718063 46.576530,110.726471 
z"/>
<path fill="#3F4146" opacity="1.000000" stroke="none" 
	d="
M129.045914,110.928375 
	C128.767242,110.648705 128.488586,110.369026 127.940712,109.956688 
	C127.671509,100.563606 127.671509,91.303185 127.671509,81.139221 
	C129.898972,82.297462 131.471832,83.040611 132.972778,83.908226 
	C141.139450,88.628990 149.338608,93.298080 157.390259,98.208511 
	C158.623306,98.960495 159.857971,100.862114 159.883453,102.254166 
	C160.044281,111.035622 159.863968,119.823334 159.328247,128.418518 
	C148.922073,122.461502 138.983994,116.694939 129.045914,110.928375 
z"/>
<path fill="#16191F" opacity="1.000000" stroke="none" 
	d="
M13.133197,127.371384 
	C20.363155,123.288734 27.515562,119.521858 34.717484,115.852150 
	C38.066708,114.145576 41.512081,112.627693 45.265873,111.049622 
	C45.732056,122.766808 45.846233,134.458649 45.968830,146.625656 
	C35.010136,140.642853 24.043024,134.184891 13.133197,127.371384 
z"/>
<path fill="#15181E" opacity="1.000000" stroke="none" 
	d="
M128.739243,111.225922 
	C138.983994,116.694939 148.922073,122.461502 158.916992,128.563934 
	C149.259705,134.597488 139.545593,140.295197 129.485779,146.034012 
	C128.787231,145.544907 128.124496,145.013077 128.127213,144.484665 
	C128.183640,133.497375 128.315567,122.510460 128.739243,111.225922 
z"/>
</svg>